<?xml version="1.0" standalone="no"?>
<!DOCTYPE svg PUBLIC "-//W3C//DTD SVG 1.1//EN" "http://www.w3.org/Graphics/SVG/1.1/DTD/svg11.dtd" >
<svg xmlns="http://www.w3.org/2000/svg">
<metadata>
This is a custom SVG webfont generated by Font Squirrel.
Copyright   : Copyright (c) FontShop, 1999. All rights reserved. Added to full character set by D. Steffmann
</metadata>
<defs>
<font id="webfont" horiz-adv-x="600" >
<font-face units-per-em="1000" ascent="800" descent="-200" />
<missing-glyph horiz-adv-x="377" />
<glyph unicode=" "  horiz-adv-x="377" />
<glyph unicode="&#x09;" horiz-adv-x="377" />
<glyph unicode="&#xa0;" horiz-adv-x="377" />
<glyph unicode="!" horiz-adv-x="480" d="M428 597q2 8 2 13q0 32 -40 45q-27 10 -46 10q-26 0 -33 -21q-3 -10 -18 -64l-42 -150l-41 -148q-14 -51 -15 -57q-4 -25 21 -32q40 -10 50 5q7 12 81 196l57 142q20 50 24 61zM233 40q4 13 4 28q0 51 -49 55q-30 3 -47 -9t-28 -51q-3 -12 -3 -22q0 -42 45 -46 q26 -3 48.5 8.5t29.5 36.5z" />
<glyph unicode="&#x22;" horiz-adv-x="480" d="M458 697q-4 19 -44 12q-15 -2 -26.5 -6.5t-19.5 -9.5q-11 -8 -12 -19q-7 -59 -18 -82q-29 -59 -44 -74q-8 -8 -8 -17q0 -11 10.5 -19.5t21.5 -8.5q9 0 22 8q48 32 86 99q34 59 34 98q0 5 -0.5 9.5t-1.5 9.5zM272 697q-4 19 -44 12q-15 -2 -26.5 -6.5t-19.5 -9.5 q-11 -8 -12 -19q-7 -59 -18 -82q-29 -59 -44 -74q-8 -8 -8 -17q0 -11 10.5 -19.5t21.5 -8.5q9 0 22 8q48 32 86 99q34 59 34 98q0 5 -0.5 9.5t-1.5 9.5z" />
<glyph unicode="#" horiz-adv-x="481" d="M414 223h-74l16 114h81l1 52h-75l24 172h-59l-23 -172h-96l24 172h-59l-24 -172h-84l-1 -52h78l-16 -114h-82l-3 -52h78l-25 -171h59l24 171h96l-24 -171h58l24 171h81zM297 337l-16 -114h-96l16 114h96z" />
<glyph unicode="$" horiz-adv-x="524" d="M493 558q-41 36 -90 52q-12 5 -13 6q-1 3 2.5 12.5t3.5 13.5q0 11 -22 12q-25 3 -31 -12q-5 -15 -23 -15q-45 0 -90 -20q-59 -27 -83 -81q-16 -36 -16 -74q0 -85 68 -138q19 -15 19 -23q0 -6 -4 -17l-30 -84l-32 -87q-6 -15 -28 -12q-34 5 -83 27q-15 7 -25 7 q-15 0 -25 -27q-10 -26 -10 -40q0 -15 11 -26q25 -27 94 -33q25 -3 25 -11q0 -6 -13 -38q-6 -17 -10 -27l-6 -15q-10 -22 15 -25q26 -3 31 9l19 50q8 22 13 38q5 12 9 13q3 1 18 0q47 -4 111 19q95 36 114 121q6 24 6 48q0 67 -46 122q-10 13 -59 56q-12 10 -7 27 q19 56 31.5 89t17.5 44q4 8 8 10q3 1 16 -3q46 -16 70 -46q13 -16 21 -16q13 0 24 26q10 21 10 38q0 19 -11 30zM306 532q0 -12 -41 -111q-5 -9 -9 -9q-5 0 -11 7q-23 26 -23 46q0 15 7 28q16 36 51 45q26 8 26 -6zM313 151q-21 -56 -90 -66q-26 -4 -21 11l32 91 q13 37 21 57q6 15 12 15q5 0 11 -6q40 -37 40 -75q0 -12 -5 -27z" />
<glyph unicode="%" horiz-adv-x="759" d="M234 556q-77 0 -136 -77q-54 -71 -54 -150q0 -115 105 -115q76 0 133 72q52 66 57 143q52 2 130 44l41 22l2 -2l-58 -67l-76 -92l-70 -91q-180 -246 -180 -273q0 -13 12 -32q13 -19 24 -19t29 28q5 10 11 19t11 19q85 143 266 371l36 44l37 45q56 71 56 82q0 12 -20 35 q-20 24 -28 24q-4 0 -39 -25q-22 -16 -42 -28t-39 -21q-55 -28 -106 -33q-18 77 -102 77zM228 496q24 0 35 -17q-8 -2 -8 -11q0 -20 16 -29q1 -53 -30 -105q-36 -60 -85 -60q-44 0 -44 61q0 50 33 103q36 58 83 58zM612 350q-77 0 -136 -77q-54 -71 -54 -150 q0 -115 105 -115q78 0 137 77q54 70 54 150q0 115 -106 115zM606 290q44 0 44 -61q0 -50 -32 -103q-37 -58 -84 -58q-44 0 -44 61q0 50 33 103q36 58 83 58z" />
<glyph unicode="&#x26;" horiz-adv-x="821" d="M705 193q20 0 33 16.5t13 36.5q0 18 -20 20q-67 1 -125 1.5t-108 0.5q-29 3 -45 -31q-11 -25 -11 -32q0 -11 14 -9h61q15 0 15 -5q0 -3 -4 -10q-8 -13 -22.5 -27.5t-36.5 -30.5q-65 -47 -134 -47q-18 0 -34 3q-78 13 -78 72q0 14 5 32q24 77 89 109q40 20 81 20 q32 0 41 22q5 15 5 20q0 13 -20 19q-44 14 -44 54q0 27 16 62q21 47 62 73q37 23 76 23q12 0 29.5 -6t24.5 -6q21 0 21 39q0 34 -21 43q-36 14 -68 14q-24 0 -58 -8q-52 -14 -99 -49q-54 -41 -77 -96q-13 -32 -13 -65q0 -55 29 -78q12 -9 12 -13q0 -5 -13 -6 q-60 -11 -111 -48q-74 -55 -88 -147q-1 -7 -1.5 -13.5t-0.5 -12.5q0 -116 156 -134q27 -3 53 -3q124 0 222 74q63 49 87 101q11 23 29 23h31q10 -1 16 -1h11z" />
<glyph unicode="'" horiz-adv-x="294" d="M272 697q-4 19 -44 12q-15 -2 -26.5 -6.5t-19.5 -9.5q-11 -8 -12 -19q-7 -59 -18 -82q-29 -59 -44 -74q-8 -8 -8 -17q0 -11 10.5 -19.5t21.5 -8.5q9 0 22 8q48 32 86 99q34 59 34 98q0 5 -0.5 9.5t-1.5 9.5z" />
<glyph unicode="(" horiz-adv-x="384" d="M408 679q-9 27 -20 27q-4 0 -13 -3q-94 -28 -185 -125q-99 -103 -147 -242q-43 -123 -43 -235q0 -150 80 -269q12 -17 27 -17q14 0 29.5 13t15.5 27q0 9 -6 20q-63 99 -63 239q0 83 25 164q46 153 147 255q68 68 147 104q12 4 12 18q0 7 -6 24z" />
<glyph unicode=")" horiz-adv-x="322" d="M289 200q33 106 33 205q0 163 -85 287q-8 12 -21 12q-14 0 -27 -12q-18 -17 -18 -27q0 -8 8 -19q21 -27 39 -79q27 -77 27 -160q0 -95 -35 -194q-23 -66 -54.5 -119t-69.5 -95q-51 -54 -136 -106q-19 -12 -19 -28q0 -10 6 -22q11 -20 22 -20q7 0 16 4q76 32 154 107 q111 109 160 266z" />
<glyph unicode="*" horiz-adv-x="370" d="M120 636l-37 -69l123 -39l-102 -88l56 -52l81 107l51 -121l69 33l-74 108l132 17l-14 74l-125 -44l37 136h-79l-9 -125z" />
<glyph unicode="+" d="M271 207h-149v-58h149v-149h58v149h149v58h-149v149h-58v-149z" />
<glyph unicode="," horiz-adv-x="424" d="M232 100q-4 19 -44 12q-15 -2 -26.5 -6.5t-19.5 -9.5q-11 -8 -12 -19q-8 -60 -18 -81q-29 -59 -44 -74q-8 -8 -8 -17q0 -11 10.5 -19.5t21.5 -8.5q9 0 22 8q48 32 86 99q34 58 34 97q0 5 -0.5 9.5t-1.5 9.5z" />
<glyph unicode="-" horiz-adv-x="386" d="M276 194q20 0 33 15t13 36q0 18 -20 20q-69 1 -127.5 2t-109.5 0q-26 3 -41 -31q-11 -25 -11 -32q0 -11 14 -9q36 3 134 0q17 -1 45 -1h70z" />
<glyph unicode="." horiz-adv-x="426" d="M229 22q12 15 12 34q0 25 -16.5 42t-40.5 17q-30 0 -54 -27q-20 -23 -20 -52q0 -47 47 -47q46 0 72 33z" />
<glyph unicode="/" horiz-adv-x="278" d="M360 722h-87l-290 -745h82z" />
<glyph unicode="0" horiz-adv-x="478" d="M439 556q-7 19 -24 19q-7 0 -17 -5q-52 -28 -49 -63t3 -75q0 -112 -22 -184q-20 -64 -51 -113q-42 -65 -82 -65q-60 0 -60 107q0 57 20 129q28 100 102 192q28 34 55 60t55 45q11 8 11 18q0 18 -26 30q-20 9 -37 9q-14 0 -36 -8q-42 -16 -108 -94q-87 -104 -121 -226 q-17 -63 -17 -122q0 -83 31 -138q36 -64 106 -77q13 -3 27 -3q76 0 143 85q53 70 82 163q29 99 29 208q0 68 -14 108z" />
<glyph unicode="1" horiz-adv-x="328" d="M328 609q5 15 5 22q0 14 -12 24.5t-26 10.5q-8 0 -33 -14l-111 -65q-44 -27 -66 -42q-12 -8 -12 -21q0 -9 8 -25q11 -23 21 -23q4 0 10 3q34 15 72 45q7 6 12 6q7 0 2 -14l-78 -249l-72 -230q-3 -8 -3 -13q0 -21 45 -28q5 -1 10.5 -1.5t10.5 -0.5q38 0 46 29 q10 46 87 306q74 254 84 280z" />
<glyph unicode="2" horiz-adv-x="454" d="M434 468q4 91 -53 144q-53 48 -140 48q-33 0 -70 -8q-35 -8 -36 -45q-2 -51 25 -51q5 0 13 3q32 13 54 13q13 1 30.5 -4t33.5 -16.5t27 -30.5t10 -44q0 -14 -5 -32q-32 -107 -166 -241l-53 -46l-53 -45q-85 -75 -85 -93q0 -26 35 -23q48 3 178 3q132 0 155 -4q15 -3 23 8 q7 9 14 31q6 16 6 28q0 20 -24 25q-8 1 -19 1.5t-27 0.5q-35 0 -96 -3q-60 -3 -61 -3q-17 0 -17 4t12 15l94 85q38 35 58 56q134 140 137 224z" />
<glyph unicode="3" horiz-adv-x="435" d="M389 493q3 27 -4 52.5t-22.5 47t-39 37t-53.5 21.5q-43 10 -85 7q-21 -1 -32 -34q-5 -18 -5 -29q0 -31 31 -27q4 1 9 1h10q41 0 66 -16q36 -23 30 -72q-6 -50 -55 -77q-36 -21 -74 -22q-26 -2 -24 -36q2 -30 19 -34q7 -2 16 -3t20 -2q16 -2 39 -9q37 -13 37 -78 q0 -35 -17 -61q-49 -76 -129 -76q-53 0 -112 31q-6 3 -12 3q-15 0 -20 -35q-5 -49 13 -59l21 -13q8 -5 14 -7q23 -7 68 -11q65 -7 145 28q92 44 120 118q18 48 18 87q0 77 -82 131q-8 5 -8 7q0 1 11 9q81 51 87 121z" />
<glyph unicode="4" horiz-adv-x="497" d="M429 219q8 24 8 33q0 16 -17 14q-45 -4 -63.5 -6t-12.5 -2q-10 0 -12 2q-2 4 2 16q9 26 33 78l62 130q2 6 2 9q0 14 -33 31q-18 9 -31 9q-16 0 -27 -20q-26 -55 -50 -115t-46 -127q-6 -21 -22 -22q-20 -2 -33 -3t-21 -2q-19 -1 -19 8q0 6 4 18q11 32 29 77t44 102 q63 141 111 207q6 7 6 14q0 13 -34 29q-23 12 -42 12q-21 0 -30 -15q-32 -51 -65 -116.5t-65 -147.5q-23 -58 -40.5 -108.5t-30.5 -95.5q-6 -20 -6 -32q0 -31 38 -33q39 -2 69.5 -2.5t52.5 1.5q18 1 18 -7q0 -5 -3 -12q-4 -9 -18 -61q-14 -50 -15 -63q-4 -25 33 -25 q21 0 27 3q10 3 14 19l24 76l20 63q3 10 8 12l15 2q50 3 85 9q17 3 31 41z" />
<glyph unicode="5" horiz-adv-x="429" d="M454 624q6 13 6 26q0 22 -22 18q-33 -8 -102 -9q-64 0 -106 6q-31 4 -41 -21q-5 -12 -17 -47l-30 -93l-31 -96q-11 -34 -13 -43q-3 -14 -1 -18q3 -5 18 -3q34 4 79 -16q61 -28 61 -92q0 -20 -8 -47q-32 -105 -142 -105q-25 0 -44 6l-15 6q-10 4 -25 11q-22 11 -32 11 q-19 0 -23 -30q-10 -55 8 -69q41 -32 142 -27q75 5 129 34q79 45 105 135q13 43 13 83q0 127 -147 175q-16 4 -18 8q-2 6 2 15l23 70q9 27 12 40q4 19 27 18q113 -8 146 1q18 4 29 17q6 7 17 36z" />
<glyph unicode="6" horiz-adv-x="472" d="M416 181q6 24 6 53q0 56 -22 96q-25 47 -77 55q-7 1 -13.5 1.5t-13.5 0.5q-33 0 -84 -20q-11 -5 -13 -2q-3 3 1 12q14 34 34 70.5t48 74.5q56 77 106 115q11 8 11 16q0 9 -17 11q-102 10 -133 -18q-62 -58 -119 -165q-59 -114 -82 -228q-4 -20 -6 -39t-2 -38 q0 -85 40 -135.5t112 -52.5q85 -2 149 61q54 55 75 132zM311 195q-11 -53 -43 -93q-33 -39 -68 -39q-61 0 -61 101q0 13 1 25.5t3 26.5q7 48 30 71q20 19 61 26q5 1 9.5 1.5t9.5 0.5q63 0 63 -76q0 -10 -1.5 -21t-3.5 -23z" />
<glyph unicode="7" horiz-adv-x="420" d="M451 631q-51 23 -173 31q-85 5 -153 -4q-28 -4 -35 -41q-3 -17 -3 -26q0 -24 35 -19q20 2 50 3t69 -1q79 -1 115 -9q11 -2 11 -7q0 -6 -7 -17l-205 -339q-72 -118 -86 -137q-9 -11 -9 -23q0 -25 38 -42q21 -8 37 -8q27 0 38 21q17 39 51 109l87 174l86 174q34 68 51 96 q17 31 17 45t-14 20z" />
<glyph unicode="8" horiz-adv-x="429" d="M452 618q-55 40 -112 45q-8 1 -16.5 1.5t-16.5 0.5q-129 0 -172 -103q-13 -29 -13 -64q0 -57 41 -134q10 -20 0 -27q-29 -18 -69 -63q-52 -56 -65 -96q-9 -26 -9 -53q0 -48 29 -83q32 -40 93 -47q8 -1 15.5 -1.5t15.5 -0.5q74 0 130 47q55 46 55 120q0 76 -45 156 q-10 16 -10 23q0 6 10 15l41 38q16 16 24 27q18 22 18 46q0 11 -5 33q-8 32 -27 32q-7 0 -11 -7q-12 -18 -42 -53l-27 -28q-10 -12 -16 -17q-14 -11 -21 0q-23 35 -23 79q0 34 23 59.5t57 25.5q17 0 35 -6q66 -26 73 -32q17 -4 39 19q13 13 13 28q0 12 -12 20zM257 138 q-6 -30 -28 -50q-26 -23 -58 -23q-28 0 -47 15q-22 16 -22 44q0 19 12 39q36 61 94 105q11 8 18 -5q34 -53 34 -99q0 -13 -3 -26z" />
<glyph unicode="9" horiz-adv-x="452" d="M428 393q9 43 9 82q0 172 -158 187q-93 9 -157 -67q-47 -55 -64 -132q-4 -19 -6 -36t-2 -34q0 -116 90 -131q16 -3 34 -3q38 0 83 18q13 5 14 4q2 -2 -1 -10q-26 -64 -82 -132q-26 -31 -52.5 -56.5t-54.5 -46.5q-13 -10 -13 -18t13 -14q21 -10 72 -10q42 0 56 12 q65 65 124 160q37 60 60.5 116.5t34.5 110.5zM328 433q-11 -52 -30 -71q-17 -18 -61 -26q-7 -1 -13 -1.5t-11 -0.5q-60 0 -60 65q0 11 1.5 25t5.5 30q31 136 107 136q33 0 51 -35q15 -29 15 -74q0 -23 -5 -48z" />
<glyph unicode=":" horiz-adv-x="440" d="M320 310q15 16 15 45q0 31 -22 44q-19 11 -40 11q-36 0 -57 -24t-21 -53q0 -28 26 -45q19 -11 36 -11q34 0 63 33zM235 22q13 16 13 41q0 32 -19 48q-16 13 -38 13q-34 0 -61 -30q-20 -23 -20 -49q0 -31 27 -47q13 -8 30 -8q42 0 68 32z" />
<glyph unicode=";" horiz-adv-x="428" d="M320 310q13 16 13 46q0 31 -19 42.5t-40 11.5q-34 0 -54 -23q-22 -25 -22 -56q0 -26 23 -43q16 -12 36 -12q36 0 63 34zM239 102q-5 22 -51 15q-26 -5 -42 -16q-12 -8 -13 -22q-4 -42 -18 -80q-17 -49 -48 -80q-7 -7 -7 -13q0 -11 15 -21q20 -14 41 0q56 37 93 103 q32 56 32 93q0 5 -0.5 10.5t-1.5 10.5z" />
<glyph unicode="&#x3c;" d="M481 306v59l-363 -161v-52l363 -160v58l-288 128z" />
<glyph unicode="=" d="M478 280h-356v-58h356v58zM478 134h-356v-58h356v58z" />
<glyph unicode="&#x3e;" d="M119 50v-58l363 160v52l-363 161v-59l288 -128z" />
<glyph unicode="?" horiz-adv-x="501" d="M451 536q0 94 -82 119q-30 10 -61 10q-28 0 -56 -9q-25 -8 -29 -25q-9 -32 -3 -61q4 -21 27 -10q19 10 47 10q17 0 28 -6t18 -15t9.5 -20t2.5 -20q0 -41 -54 -105q-105 -129 -115 -183q-6 -30 3 -36q15 -8 42 -7q17 0 25 21t14 33l8 17q13 21 39 51l64 72q73 77 73 164z M165 -3q30 0 53.5 21t23.5 51q0 27 -18 42t-45 15q-47 0 -63 -45q-6 -17 -6 -32q0 -52 55 -52z" />
<glyph unicode="@" horiz-adv-x="800" d="M361 219q-35 0 -57.5 25.5t-22.5 65.5q0 60 38 116q42 60 99 60q16 0 30.5 -7t25 -19t17 -28t6.5 -34q0 -61 -39 -118q-42 -61 -97 -61zM525 489q-33 71 -111 71q-94 0 -158 -81q-60 -77 -60 -178q0 -65 42 -113q42 -47 103 -47q59 0 112 59h2q3 -59 59 -59q73 0 147 72 q87 85 87 209q0 130 -100 217q-98 83 -233 83q-151 0 -257 -106t-106 -257q0 -154 106 -259t262 -105q94 0 172 43t126 122h-70q-87 -102 -224 -102q-127 0 -212 84q-84 84 -84 213t81 216t206 87q113 0 187 -65q79 -70 79 -183q0 -75 -41 -137q-40 -61 -88 -61 q-18 0 -18 24q0 8 2 19t6 27l72 264h-70z" />
<glyph unicode="A" horiz-adv-x="606" d="M616 73q2 22 -5 39q-3 9 -8 3q-22 -30 -55 -47q-32 -18 -55 -16q-27 3 -34 7q-13 7 -13 27t10 54q10 32 29.5 85t49.5 128l39 95l26 58q6 12 6 21q0 23 -31 27q-46 7 -61 -24l-78 -150q-34 -62 -59 -101q-133 -205 -215 -205q-13 0 -22 4q-39 13 -39 59q0 49 45 132 q18 33 36.5 60t37.5 49q181 204 334 220q40 4 40 17q0 5 -14 25q-17 23 -42 23q-80 0 -195 -61q-130 -69 -215 -174q-137 -169 -137 -305q0 -75 46 -106q36 -24 78 -24q76 0 165 81q63 57 101 121q4 6 7 6q7 0 2 -11q-37 -84 -37 -136q0 -20 7 -28q26 -29 108 -29q25 0 43 3 q58 11 98 51q5 5 7 22z" />
<glyph unicode="B" horiz-adv-x="628" d="M647 504q1 7 1 13v12q0 123 -106 136q-27 4 -75 -11q-11 -5 -23 -9t-24 -9q-13 -4 -13 14q0 12 -16 12q-22 0 -49 -11q-31 -13 -34 -33q-2 -17 -4 -30t-4 -23q-3 -14 -17 -25q-17 -13 -45.5 -43t-68.5 -78q-100 -121 -137 -206q-41 -99 -41 -153q0 -62 47 -89 q20 -11 40 -11q34 0 70 24q29 17 38 32q9 16 36 6q80 -30 128 -27q53 5 103 31q62 35 80 89q11 33 11 63q0 77 -49 141q-6 10 7 17q68 40 94 66q46 43 51 102zM540 487q-13 -34 -50 -72q-35 -38 -51 -38q-3 0 -4 1q-25 18 -67 27q-15 4 -10 19q5 16 12.5 43.5t17.5 69.5 q4 18 15 26q44 29 80 29q15 0 30 -5q34 -10 34 -62q0 -21 -7 -38zM258 404q-14 -67 -69 -197q-66 -157 -101 -157q-22 0 -19 35q4 51 60 156q58 112 118 170q5 5 8 5q6 0 3 -12zM428 151q-32 -71 -127 -71q-30 0 -46 9q-11 7 -1 23q35 63 75 185q1 7 31 7q40 2 48 4 q13 3 18 -12q19 -51 19 -74q0 -32 -17 -71z" />
<glyph unicode="C" horiz-adv-x="512" d="M550 464q22 44 22 91q0 52 -28 86t-79 34q-91 0 -189 -83q-147 -126 -257 -361q-65 -141 -65 -259q0 -122 76 -168q40 -23 82 -23q131 0 272 197q10 13 10 28q0 13 -10.5 28t-22.5 15t-33 -35q-25 -43 -83 -90q-64 -52 -106 -52q-15 0 -25 7q-40 25 -40 91q0 59 24 134 l18 49l31 80q23 57 58.5 116t84.5 122q105 133 164 133q38 0 38 -44q0 -31 -19 -70q-31 -67 -112 -93q-21 -6 -21 -21q0 -8 9 -23q13 -23 36 -25q26 -1 78 37q60 43 87 99z" />
<glyph unicode="D" horiz-adv-x="747" d="M690 283q17 65 17 117q0 85 -40 143q-32 45 -76 63q-20 8 -15 19q4 8 7.5 14t5.5 10t2 6q0 8 -38 10q-24 3 -33.5 -1t-15.5 -10l-10 -13q-5 -6 -20 -7q-58 0 -119 -18q-120 -34 -206 -128q-35 -38 -61 -78.5t-43 -85.5q-25 -66 -25 -123q0 -19 3 -29q10 -30 40 -30 q4 0 12 2q13 4 17 20l2 22q1 11 3 22q15 96 117 214q106 125 197 130q22 1 22 -9q0 -6 -7 -14q-26 -32 -105 -223l-50 -126l-31 -79q-6 -14 -11.5 -17.5t-21.5 -1.5q-8 1 -16 1h-18q-105 0 -113 -47q-8 -48 86 -56q44 -4 112 29q18 9 58 -6q13 -5 33 -6h14q13 0 35 -1 q79 -1 155 57q96 75 137 230zM569 268q-23 -55 -44.5 -92t-41.5 -57q-50 -51 -137 -53q-26 0 -26 9l2 6q32 61 57.5 116t42.5 106q17 49 54 131q34 78 45 94q14 20 22 20q5 0 13 -3q56 -20 56 -105q0 -74 -43 -172z" />
<glyph unicode="E" horiz-adv-x="445" d="M505 609q-2 33 -39 51q-20 10 -58 10q-71 0 -136 -40q-87 -56 -148 -173q-28 -53 -28 -97q0 -36 19 -67q20 -32 20 -33q0 -5 -11 -13q-44 -29 -92 -80q-69 -75 -105 -158q-26 -60 -26 -105q0 -91 96 -119q17 -5 35 -5q75 0 155 54q57 38 107 93q46 49 55 73q2 8 2 11 q0 14 -20 31q-15 12 -25 12q-11 0 -20 -14q-24 -38 -88 -98q-86 -80 -130 -80t-44 54q0 56 55 144q63 103 120 153q13 12 26 10q33 -7 55 -1q73 19 73 63t-57 44q-20 0 -40 -9l-40 -18q-10 -5 -15.5 0.5t-5.5 18.5q0 53 43 126q37 63 82 105q52 49 93 48q17 0 29 -4.5 t20 -9.5t12.5 -9t5.5 -4q9 0 17.5 12t7.5 24z" />
<glyph unicode="F" horiz-adv-x="672" d="M640 261q4 21 -11 27q-30 13 -72 19q-18 3 -13 18l49 143l44 129q6 22 -6 28q-14 7 -35 15t-50 16q-77 22 -138 24q-88 3 -130 -13q-70 -24 -73 -96q-1 -25 15 -40q13 -14 30 -12q16 1 16 12q0 2 -1 7.5t-1 9.5q0 9 4 16q9 18 35 29.5t55 9.5q14 -1 34.5 -5t48.5 -11 q52 -13 62 -20q10 -6 2 -23q-14 -35 -33 -87.5t-42 -123.5q-5 -11 -21 -11q-35 0 -108 -16q-25 -4 -30 -41q-3 -20 0 -27t13 -6q58 13 99 10q15 -1 8 -22l-14 -40l-14 -39q-35 -84 -76 -132q-59 -69 -127 -72q-91 -3 -103 58q-5 17 -14 17q-2 0 -4.5 -0.5t-6.5 -1.5 q-32 -11 -32 -56q0 -68 102 -96q24 -7 56 -7q127 0 213 99q71 80 128 254q9 28 21 28t38 -9q10 -3 4 -21q-1 -2 -2.5 -8t-4.5 -17q-7 -23 -9 -29q-4 -11 23 -16q16 -3 23 -1q10 1 13 17l19 63q8 28 16 50z" />
<glyph unicode="G" horiz-adv-x="584" d="M548 399q1 3 1 9q0 21 -31 31q-17 6 -24 6q-12 0 -19 -13q-20 -38 -75 -89q-68 -63 -113 -63q-10 0 -22 5q-33 15 -33 55q0 39 31 98l18 31q9 15 17 31q4 11 26 16q47 7 121 42q70 31 70 69q0 8 -3 19q-9 30 -61 30q-29 0 -68 -11q-50 -15 -99 -67q-18 -11 -31 -13 q-93 -14 -146 2q-3 1 -8 1q-19 0 -17 -36q2 -33 37 -49q30 -14 55 -10q20 3 20 -6q0 -5 -7 -15q-65 -98 -65 -181q0 -57 41 -83q34 -22 74 -22q45 0 96 27l24 17l25 16t16 8q4 0 4 -4q0 -1 -2 -9q-50 -158 -84 -210q-54 -80 -153 -87q-38 -3 -67.5 11t-37.5 35 q-10 28 -19 28q-7 0 -17 -6q-22 -12 -22 -54q0 -41 25 -60q55 -45 140 -45q109 0 183 60t109 175l51 172z" />
<glyph unicode="H" horiz-adv-x="742" d="M768 585q3 10 3 22q0 22 -15 36t-37 14q-65 0 -147 -144l-38 -81q-15 -33 -22 -52q-11 -23 -27 -23h-13q-10 0 -29 1q-17 1 -27 1h-12q-10 -1 -15 4q-5 4 0 15q64 176 75 227q5 27 -20 36q-66 25 -185 25q-59 0 -84 -13q-68 -35 -68 -81q0 -28 21 -28q10 0 18 17 q13 28 97 28q57 0 82 -8.5t25 -14.5q0 -4 -3 -11l-66 -198q-8 -12 -21 -14q-38 -3 -98 -30q-85 -37 -123 -97q-38 -59 -38 -110t33 -80.5t84 -29.5q67 0 121 55q45 46 81 131l14 38l18 51q6 18 28 18h82q11 -5 8 -18q-36 -180 -34 -195q4 -29 15 -39q43 -41 144 -41 q14 0 27.5 1t24.5 3q34 4 67 25q8 5 15.5 11.5t15.5 14.5q5 5 7 22q2 22 -5 39q-3 9 -8 3q-21 -28 -52 -46t-52 -19q-16 -1 -29 0.5t-23 3.5q-39 9 -39 39q0 39 62 231q20 63 37 107t31 71q10 19 22 19q20 0 39 16q25 18 33 48zM239 249q-15 -55 -43 -104q-38 -65 -75 -65 q-38 0 -38 32q0 34 49 83t95 64q7 3 11 1q3 -3 1 -11z" />
<glyph unicode="I" horiz-adv-x="449" d="M418 406q26 118 26 177q0 96 -59 113q-12 4 -29 4q-64 0 -136 -69q-66 -63 -108 -154q-30 -65 -30 -145q0 -74 27 -126q30 -59 87 -79q17 -5 5 -17q-33 -33 -51 -45q-31 -20 -63 -20q-55 0 -75 44q-5 9 -13 9q-28 0 -28 -48q0 -34 22 -56q28 -31 89 -35q118 -9 195 86 q83 102 141 361zM340 591q-2 -62 -36 -195q-17 -67 -32.5 -116t-29.5 -81q-6 -14 -12 -14q-5 0 -16 7q-39 22 -39 111q0 65 25 130q20 52 48 103q43 81 75 81q19 0 17 -26z" />
<glyph unicode="J" horiz-adv-x="601" d="M611 73q2 22 -5 39q-3 9 -8 3q-21 -28 -53.5 -46.5t-56.5 -18.5q-58 0 -74 9q-9 5 -6 14l22 63l21 62q19 60 32 109.5t20 88.5q11 67 17 108t6 58q0 105 -94 105q-73 0 -149 -61q-78 -63 -107 -150q-24 -72 -24 -130q0 -96 66 -144q17 -13 37 -20.5t42 -11.5 q17 -3 12 -17q-11 -30 -15 -45q-8 -21 -20 -21q-22 0 -46.5 -2t-50.5 -6q-88 -13 -133 -45q-31 -20 -50 -54q-23 -38 -23 -73q0 -22 11 -42q32 -56 112 -56q55 0 106 25q65 31 119 101q13 17 24.5 36t22.5 41q4 10 19 10q-4 0 2 -0.5t22 -1.5q64 -6 97 0q56 9 98 51 q5 5 7 22zM425 543q-2 -17 -11 -53l-24 -95q-16 -60 -27.5 -99.5t-19.5 -59.5q-4 -10 -6.5 -15.5t-3.5 -7.5q-4 -6 -16 -4q-61 13 -61 99q0 14 1.5 28.5t5.5 30.5q5 25 17.5 55t32.5 65q35 64 53 79q19 16 38 16q25 0 21 -39zM240 -21q-29 -56 -82 -91q-37 -25 -63 -25 q-21 0 -34 15q-8 10 -8 22q0 35 50 62q50 26 115 38q4 1 7 1h7q13 0 13 -8q0 -4 -5 -14z" />
<glyph unicode="K" horiz-adv-x="789" d="M835 615q3 10 3 20q0 20 -18 22h-54q-30 0 -44 -20q-12 -18 -38 -53l-68 -89q-46 -60 -73.5 -91.5t-36.5 -36.5q-14 -8 -23 -8q-12 0 -12 13q0 10 4 19q55 171 55 198q0 22 -7 33.5t-30 19.5q-57 20 -135 20q-36 1 -69.5 -5.5t-59 -18.5t-40.5 -29.5t-14 -37.5 q0 -15 10.5 -30t25.5 -15q21 0 27 21q10 36 75 36q55 0 85 -13q15 -8 11 -24q-32 -126 -75 -222q-64 -138 -70 -148q-53 -90 -118 -95q-49 -3 -74 13q-7 8 -14 15l-15 15q-12 12 -27 12q-27 0 -25 -45q4 -91 161 -91q69 0 119 33q71 48 130 174q16 37 32 42q23 8 41 20 q4 2 11 8t18 14q7 5 15 5q29 0 29 -30q0 -6 -20 -69q-23 -75 -24 -77q-4 -15 -4 -32q0 -93 133 -93q29 0 63 4.5t66 25.5q8 5 15.5 11.5t15.5 14.5q5 5 7 22q2 22 -5 39q-3 9 -8 3q-18 -27 -54 -47q-30 -16 -50 -18q-81 -5 -81 32q0 10 4 21q49 135 50 170q2 33 -21 53 q-20 17 -45 20q-16 1 -16 8q0 6 14 15q27 17 59 45l74 65q102 94 115 136z" />
<glyph unicode="L" horiz-adv-x="670" d="M680 73q2 22 -5 39q-3 9 -8 3q-19 -27 -55 -47q-30 -17 -49 -18q-54 -2 -102 18q-38 16 -68 40q-6 4 0 15q25 39 56 128q30 82 42 150q4 19 14 22q121 32 164 111q15 27 15 53q0 43 -31 68q-23 18 -54 18q-32 0 -64.5 -17t-51.5 -41q-48 -62 -64 -113q-4 -15 -24 -7 q-49 19 -58 40q-2 7 -5 13t-5 12q-4 9 -14 10q-14 1 -22.5 -16t-8.5 -38q0 -35 33 -60q30 -22 65 -29q15 -3 10 -17l-18 -56q-9 -28 -19 -56q-17 -51 -28 -80.5t-16 -38.5q-6 -11 -12 -5q-15 15 -62 31q-58 22 -109 19q-50 -3 -93 -35q-46 -35 -44 -86q4 -98 153 -108 q55 -5 111 15q54 20 81 50q8 9 20 0q45 -33 87.5 -48.5t91.5 -15.5q85 0 140 55q5 5 7 22zM607 635q30 0 30 -30q0 -25 -27 -55q-30 -31 -77 -51q-10 -4 -15 -1q-4 4 -2 13q8 37 33 77q30 47 58 47zM267 101q-17 -20 -54 -36q-42 -18 -73 -17q-88 4 -88 58q0 59 86 57 q22 -1 42 -5t39 -12l19 -10q11 -6 25 -16q13 -9 4 -19z" />
<glyph unicode="M" horiz-adv-x="1065" d="M1075 73q2 22 -5 39q-3 9 -8 3q-10 -14 -24 -25.5t-31 -21.5q-30 -18 -49 -18q-73 0 -91 36q-8 18 11 63q145 340 156 384q6 25 6 48q0 82 -79 82q-69 0 -134 -59q-33 -30 -102 -117l-39 -50l-39 -50q-11 -12 -15 -12q-2 0 -2 3q0 6 4 13q33 73 63 169q4 12 4 25 q0 34 -25 55.5t-62 21.5q-44 0 -84 -30q-51 -38 -116 -131l-36 -53l-35 -54q-14 -20 -14 -3q0 6 3 18l8 27q4 13 7 26q12 48 12 85q0 105 -100 115q-5 1 -11 1h-10q-74 0 -131 -45q-56 -45 -72 -109q-15 -57 -15 -96q0 -53 28 -85q10 -12 31 -12q43 0 43 27q0 7 -6 15 q-16 22 -16 66q0 39 17 81q33 77 98 77q5 0 11 -0.5t11 -1.5q38 -8 38 -59q0 -28 -10 -67q-17 -71 -55.5 -178.5t-99.5 -253.5q-1 -2 -1 -5q0 -18 48 -18q41 0 61 20l51 104l51 104q104 210 164 276q59 65 95 65q28 0 28 -35q0 -10 -3 -22q-9 -32 -34.5 -97.5t-68.5 -164.5 l-47 -107l-47 -107q-4 -8 -4 -15q0 -18 44 -20q34 -2 51 4t28 31q20 49 48 102l61 113q106 187 210 285q34 34 66 34q22 0 22 -24q0 -16 -10 -37l-111 -254q-38 -91 -43 -112q-6 -26 -6 -45q0 -68 88 -92q58 -16 119 -5q56 9 98 51q5 5 7 22z" />
<glyph unicode="N" horiz-adv-x="770" d="M780 73q2 22 -5 39q-3 9 -8 3q-10 -14 -24 -25.5t-31 -21.5q-30 -18 -49 -18q-29 0 -51 13q-25 16 -25 45q0 13 4 25q2 7 19 56l49 142l43 131l21 66q6 25 6 47q0 63 -54 80q-10 2 -19 3.5t-19 1.5q-81 0 -165 -94q-32 -37 -62.5 -83.5t-58.5 -103.5q-5 -11 -12 -11 q-4 0 -4 6q0 2 2 10q28 84 28 145q0 99 -77 125q-29 9 -55 9q-86 0 -161 -99q-52 -68 -52 -153q0 -57 34 -92q16 -18 39 -18q31 0 31 24q0 3 -2 10q-4 7 -6 15l-4 18q-2 9 -3 17q0 59 38 137q25 52 76 52q60 0 60 -73q0 -44 -21 -107q-28 -83 -87 -224l-41 -95 q-16 -38 -26 -57q-4 -7 -4 -12q0 -12 38 -14q62 -2 87 50q29 61 65.5 127t81.5 139q114 189 179 245q24 21 42 21q29 0 29 -33q0 -4 -2 -10q-63 -153 -97 -249.5t-40 -139.5q-3 -23 -3 -39q0 -57 45 -82q44 -25 100 -25q11 0 23 1t23 3q56 9 98 51q5 5 7 22z" />
<glyph unicode="O" horiz-adv-x="517" d="M587 563q-23 44 -36 44q-6 0 -15 -9l-30 -30q-6 -6 -10 -6q-7 0 -9 14q-2 11 -7 23.5t-13 25.5q-20 32 -48 44q-41 18 -63 18q-27 0 -61 -15q-8 -3 -19 -3q-81 -2 -156 -87q-63 -73 -107 -189q-32 -90 -32 -184q0 -170 102 -210q30 -13 66 -13q78 0 157 65q74 62 124 165 q40 82 57 151q3 12 12 72q3 18 9 22q25 20 42.5 37t28.5 31q16 20 8 34zM412 496q-2 -20 -40 -20q-20 0 -36.5 6.5t-28 17.5t-18 25t-6.5 29q0 28 26 51q13 12 34 12q15 0 28.5 -7.5t23 -19.5t15 -27t5.5 -30q0 -3 -3 -37zM387 380q-11 -54 -61 -147q-84 -158 -157 -158 q-10 0 -20 3q-64 21 -64 117q0 79 40 187q37 102 83 156q7 10 13 10q5 0 4 -19q-8 -60 41 -104q36 -33 78 -33q7 0 16 2l22 3q3 1 5 -4t0 -13z" />
<glyph unicode="P" horiz-adv-x="638" d="M487 163q74 31 127 133q49 94 49 184q0 82 -37 131q-45 60 -134 62q-108 3 -220 -87q-125 -98 -200 -271q-81 -189 -81 -312q0 -60 21 -97q28 -46 84 -46q73 0 141 102q53 80 78 176q5 15 8 16q6 2 15 -2q22 -9 55 -9q48 0 94 20zM534 411q-14 -72 -60 -127 q-53 -67 -121 -62q-14 2 -11 22q8 63 10.5 107.5t0.5 71.5q-2 23 -21 23q-17 0 -36 -15l-28 -18q-15 -9 -17 -26q-17 -143 -33 -204q-60 -213 -109 -213q-26 0 -26 41q0 46 46 199q34 111 130 236q116 149 208 148q74 -2 74 -115q0 -17 -1.5 -34t-5.5 -34z" />
<glyph unicode="Q" horiz-adv-x="638" d="M616 389q1 11 1.5 21.5t0.5 20.5q0 112 -70 173q-58 52 -149 58q-110 8 -191 -45q-74 -48 -91 -122q-2 -11 -3.5 -22t-1.5 -22q0 -58 32 -96q31 -36 77 -31q24 3 35 12q6 6 14 29q4 9 4 20q0 27 -21 24q-8 -2 -16.5 2.5t-16.5 12.5t-13 19t-5 23q0 45 41 80q42 36 110 36 q8 0 15 -0.5t15 -1.5q63 -7 98 -69q26 -47 26 -104q0 -18 -3 -28q-22 -87 -106 -171q-57 -57 -95 -75q-17 -8 -25 9q-13 28 -47 57q-47 39 -99 42q-58 3 -97.5 -24.5t-50.5 -79.5q-3 -14 -3 -25q0 -42 27.5 -72t69.5 -39q14 -2 29 -3.5t31 -1.5q51 0 87 10q19 5 23 -8 q28 -77 36 -90q37 -76 79 -83q7 -1 13.5 -1.5t11.5 -0.5q32 0 49 26q10 16 10 31q0 14 -9 16t-17 3q-12 3 -23 11q-14 9 -37 58q-7 14 -13 28t-13 28q-8 15 10 23q34 16 67.5 40.5t68.5 56.5q121 112 135 245zM201 105q8 -14 -7 -21q-38 -18 -78 -14q-62 6 -57 47 q5 44 54 44q10 0 15 -1q33 -5 53 -25q10 -12 20 -30z" />
<glyph unicode="R" horiz-adv-x="671" d="M681 73q2 22 -5 39q-3 9 -8 3q-10 -14 -24 -25.5t-31 -21.5q-30 -18 -49 -18q-45 0 -70 13q-15 8 -2 54q5 15 11 30t11 30q17 51 17 79q0 18 -6 30q-16 34 -38 47q-9 4 -9 8q0 2 8 8q149 108 152 189q4 116 -88 124q-43 3 -83 -11l-23 -11l-23 -10q-19 -8 -21 -8 q-5 0 -3 9q4 23 4 27q0 15 -28 5l-35 -15q-14 -6 -22 -12.5t-13 -12.5t-8 -13l-9 -35q-4 -15 -5 -25q-5 -26 -21 -36q-26 -16 -98 -97q-39 -43 -66 -77t-43 -60q-62 -101 -62 -189q0 -56 35 -79q25 -15 53 -15q43 0 84 34.5t70 94.5l43 92q14 32 16 38q9 24 19 24 q43 0 79 16q8 2 12 2q13 0 21.5 -10.5t4.5 -26.5q-1 -1 -7 -21l-18 -58q-11 -34 -17.5 -59t-8.5 -42q-3 -20 -3 -27q0 -25 20 -37q22 -15 85 -21q49 -5 97 4q58 11 98 51q5 5 7 22zM531 549q3 -11 3 -22q0 -44 -43 -90l-30 -28l-31 -28q-14 -12 -30 -12q-9 0 -25 4.5 t-23 4.5q-17 2 -17 9q0 3 5 18l36 117q7 19 18 27q52 36 92 36q34 0 45 -36zM223 366q-2 -11 -13 -41t-31 -79q-43 -102 -60 -127q-17 -24 -33 -24t-16 23q0 9 3 20q11 36 60 122q49 88 75 114q10 10 14 10q5 0 1 -18z" />
<glyph unicode="S" horiz-adv-x="606" d="M616 73q2 22 -5 39q-3 9 -8 3q-10 -14 -24 -25.5t-31 -21.5q-30 -18 -49 -18q-26 0 -48 7q-8 2 -8 6q0 3 7 18q23 60 23 116q0 75 -66 126l-102 57q-64 37 -64 84q0 20 12 46q40 81 146 81q22 0 40 -5q51 -15 64 -46l5 -18q2 -8 10 -11q28 -7 43 28q4 8 4 22q0 32 -26 60 q-33 34 -99 42q-8 1 -15 1.5t-15 0.5q-74 0 -140 -36q-69 -39 -101 -104q-21 -42 -21 -82q0 -101 112 -153q116 -54 116 -126q0 -37 -27 -86q-8 -15 -26 -12l-132 33q-117 27 -158 23q-82 -7 -91 -80q-6 -42 28 -79q35 -42 107 -58q23 -5 45 -8t44 -3q132 0 225 97 q12 12 24 9q40 -9 96 0q54 7 98 51q5 5 7 22zM268 -6q-62 -32 -126 -32q-69 0 -111 36q-15 12 -15 30q0 15 11 25t29 9q62 -11 112 -22l93 -21q23 -5 23 -12q0 -6 -16 -13z" />
<glyph unicode="T" horiz-adv-x="566" d="M573 587q3 15 3 20q0 12 -22 18q-52 14 -96.5 23t-82.5 12q-15 1 -29 1.5t-27 0.5q-161 0 -175 -71q-3 -15 -3 -28q0 -34 17 -34q9 0 18 11q15 18 68 29q5 1 13.5 1.5t19.5 0.5q99 0 164 -21q17 -6 11 -27l-37 -125l-37 -125q-73 -237 -103 -267q-40 -38 -68 -50 q-26 -11 -72 -12q-73 -1 -101 36q-10 13 -17 13q-9 0 -17.5 -13t-8.5 -34q0 -80 140 -92q7 -1 14 -1h14q135 0 215 120q86 128 199 614z" />
<glyph unicode="U" horiz-adv-x="803" d="M813 73q2 22 -5 39q-3 9 -8 3q-10 -14 -24 -25.5t-32 -21.5q-32 -18 -50 -18q-70 0 -70 51q0 8 1 13l69 264l64 234q4 12 4 21q0 23 -36 29q-17 3 -27 3q-31 0 -41 -24l-82 -171q-35 -72 -59 -115q-106 -190 -192 -250q-35 -23 -51 -23t-16 17q0 13 7 30q109 292 123 342 q8 30 8 56q0 115 -130 128q-6 1 -12 1h-11q-71 0 -129 -42q-56 -38 -75 -90q-19 -51 -19 -95q0 -40 17 -62t44 -22q38 0 38 23q0 6 -5 24t-5 30q0 33 12 59q18 39 50 64.5t64 25.5q14 0 23 -4q29 -12 29 -50q0 -21 -7 -42l-19 -49l-49 -129l-50 -129q-18 -50 -24 -74 q-5 -20 -5 -34q0 -48 55 -67q16 -6 33 -6q38 0 105 34q118 62 230 259q7 15 11 15q3 0 -4 -18q-11 -26 -24 -84q-16 -62 -19 -100q-5 -44 23 -70q32 -29 99 -29q30 0 66 6q54 7 98 51q5 5 7 22z" />
<glyph unicode="V" horiz-adv-x="533" d="M587 438q6 10 6 20q0 14 -10 17l-25 11q-10 4 -17 8q-7 3 -7 24q0 1 3.5 20.5t3.5 35.5q0 6 -0.5 12t-1.5 12q-4 21 -22 38t-41 17q-10 0 -22 -5q-44 -20 -44 -71q0 -58 31 -90q6 -6 0 -30q-20 -78 -60 -159q-55 -109 -123 -163q-61 -49 -105 -49q-57 0 -57 82q0 18 3 39 q7 49 18 92t25 80q38 98 127 240q3 4 3 9q0 20 -39 25q-10 1 -17.5 1.5t-12.5 0.5q-26 0 -49 -22q-44 -39 -99 -186q-64 -167 -64 -295q0 -15 1 -29t3 -27q6 -49 43 -76.5t86 -27.5q81 0 175 71q135 105 208 352q4 16 21 11l13 -5q5 -2 8 -3q20 -8 38 20z" />
<glyph unicode="W" horiz-adv-x="746" d="M767 416q6 0 11.5 5t9 12t6 14.5t2.5 12.5q0 9 -9 14q-19 9 -26 13q-11 6 -9 33q2 22 2 38q0 17 -1 28q-2 26 -21 46.5t-45 20.5q-5 0 -15 -2q-53 -14 -53 -80q0 -5 0.5 -9.5t1.5 -9.5q2 -12 4.5 -21.5t6.5 -16.5l6 -9q4 -6 10 -14q17 -24 13 -41q-8 -38 -31 -89.5 t-60 -118.5q-90 -161 -148 -151q-40 7 -55 50q-7 21 -9 61q-1 19 22 38q48 41 74 109q11 31 11 54q0 52 -47 57q-60 4 -123 -114q-14 -27 -23 -74q-5 -24 -6 -42.5t-1.5 -33t-1.5 -25t-6 -16.5q-64 -85 -117 -85q-44 0 -44 76q0 81 50 234q22 67 66 141l28 45l27 45 q4 7 4 13q0 14 -48 22q-5 1 -15 1q-28 0 -57 -29q-24 -24 -60 -93q-44 -80 -66 -156q-34 -111 -34 -211q0 -159 103 -172q7 -1 13.5 -1.5t13.5 -0.5q90 0 150 85q4 7 9 7q6 0 17 -18q39 -67 112 -67q88 0 181 127q43 58 77.5 129.5t62.5 157.5q5 17 14 17q4 0 11.5 -3 t11.5 -3z" />
<glyph unicode="X" horiz-adv-x="730" d="M740 73q2 22 -5 39q-3 9 -8 3q-10 -14 -24 -25.5t-31 -21.5q-30 -18 -49 -18q-92 0 -143 59q-38 43 -72 150q-9 28 4 48q72 118 144 198q78 87 119 87q10 0 21 -3t17 -3q18 -2 18 21q0 13 -9 24q-21 24 -59 24q-29 0 -59 -13q-48 -20 -120 -107q-32 -38 -52.5 -68.5 t-30.5 -52.5q-9 -20 -18 -20q-7 0 -10 11l-12 53q-6 26 -11 52q-17 66 -39 100q-29 45 -75 51q-8 1 -15.5 1.5t-12.5 0.5q-39 0 -59 -29q-4 -5 -4 -13q0 -21 21 -16q5 1 9.5 1.5t8.5 0.5q22 0 42 -29q24 -38 61 -304q3 -22 -5 -36q-37 -66 -136 -170q-118 -121 -189 -136 l-25 -4q-10 -2 -18 -1q-14 0 -45 11q-6 2 -11 2q-27 0 -27 -29q0 -9 5 -19q23 -46 116 -44q171 2 353 296q8 11 14 11q9 0 17 -17q69 -144 231 -144q32 0 68 6q56 9 98 51q5 5 7 22z" />
<glyph unicode="Y" horiz-adv-x="821" d="M831 73q2 22 -5 39q-3 9 -8 3q-10 -14 -24 -25.5t-31 -21.5q-30 -18 -49 -18q-13 0 -25.5 -0.5t-24.5 -1.5q-29 -3 -36 -3q-9 0 -10 6q-1 3 4 19q10 26 32 97l58 187q66 216 75 249q3 10 3 19q0 22 -41 30q-10 2 -18 3t-13 1q-24 0 -31 -21q-36 -112 -146 -293 q-115 -187 -186 -238q-44 -33 -75 -25q-12 3 -12 19q0 12 8 31q100 235 117 354q1 8 1.5 17t0.5 17q0 130 -131 138q-152 8 -225 -151q-19 -39 -19 -82q0 -40 18 -73q15 -28 35 -39q12 -6 23 -6q30 0 30 21q0 8 -8 14q-12 10 -12 38q0 34 17 79q47 122 118 122q5 0 10 -0.5 t10 -1.5q40 -7 40 -61q0 -17 -4 -29q-2 -8 -69 -187q-65 -173 -72 -208q-1 -6 -1.5 -12t-0.5 -11q0 -36 24 -57q22 -17 57 -17q60 0 122 39q55 36 124 116q28 33 51 64.5t41 62.5l6 8q3 1 3 -1t-0.5 -5t-1.5 -8q-9 -33 -45 -126l-33 -80q-14 -34 -25 -58q-11 -22 -24 -26 q-31 -11 -91 -62q-69 -60 -69 -99q0 -18 13 -28q24 -21 56 -21q57 0 127 68q60 60 78 114q6 16 24 24q17 9 42.5 12t54 6t56 9.5t49.5 21.5q8 5 15.5 11.5t15.5 14.5q5 5 7 22z" />
<glyph unicode="Z" horiz-adv-x="612" d="M622 73q2 22 -5 39q-3 9 -8 3q-10 -14 -24 -25.5t-31 -21.5q-30 -18 -49 -18q-36 0 -46.5 3t-6.5 22q2 10 3 20t1 21q0 83 -60 152q-15 17 -2 24q127 64 144 179q1 8 1.5 15t0.5 14q0 61 -39 105q-36 39 -94 52q-23 5 -47 5q-58 0 -107 -23q-58 -27 -77 -79 q-9 -24 -9 -43q0 -52 48 -55q30 -2 30 17q0 8 -7 14q-4 3 -1 24q3 22 13 32q36 39 84 39q19 0 42 -6q57 -15 57 -87q0 -20 -6 -39q-13 -47 -50 -86q-2 0 -46 -37q-16 -13 -31 -9q-27 7 -54 7q-73 0 -77 -55q-4 -43 58 -43q30 0 74 11q23 6 31 -14q11 -30 11 -70 q0 -62 -17 -93q-9 -16 -28 -16q-104 0 -188 -32q-137 -53 -148 -148q-8 -63 87 -96q20 -7 49 -7q61 0 123.5 27t126.5 94q54 57 65 90q4 16 30 16q23 0 41.5 1.5t32.5 3.5q56 9 98 51q5 5 7 22zM283 -14q0 -22 -51 -71q-20 -20 -37.5 -35t-31.5 -23q-40 -25 -76 -25 q-46 0 -46 39q0 34 62 78q31 20 88 32l28 5q17 3 42 6q22 3 22 -6z" />
<glyph unicode="[" horiz-adv-x="333" d="M242 -145q0 5 10 18h-53l168 755h55q-4 9 -4 18q0 7 7 18h-137l-184 -827h142q-4 11 -4 18z" />
<glyph unicode="\" horiz-adv-x="278" d="M-29 722l254 -745h83l-251 745h-86z" />
<glyph unicode="]" horiz-adv-x="333" d="M256 646q0 -5 -10 -18h53l-168 -755h-55q4 -9 4 -18q0 -7 -7 -18h137l184 827h-142q4 -11 4 -18z" />
<glyph unicode="^" d="M428 198h59l-161 363h-52l-161 -363h59l128 288z" />
<glyph unicode="_" horiz-adv-x="500" d="M500 -124v50h-500v-50h500z" />
<glyph unicode="`" horiz-adv-x="507" d="M101 680q1 13 43 11q32 -2 47 -7q11 -5 14 -13q13 -40 26 -56q34 -38 52 -48q10 -4 10 -13q0 -7 -10 -14q-19 -11 -42 -2q-53 19 -96 63q-49 47 -44 79z" />
<glyph unicode="a" horiz-adv-x="507" d="M517 73q2 22 -5 39q-3 9 -8 3q-10 -14 -24 -25.5t-31 -21.5q-30 -18 -49 -18q-51 0 -67 16q-7 7 -7 20q0 14 7 35t17.5 49.5t26.5 65.5l56 124q7 19 -3 30q-7 6 -35 11q-28 6 -38 3q-8 -3 -16 -11q-5 -5 -12 -16q-6 -11 -22 -2q-34 18 -75 17q-55 -1 -109 -31 q-72 -40 -112 -117q-40 -76 -40 -141q0 -50 28 -81q27 -33 76 -33q51 0 107 50q39 35 54 65q2 4 5.5 7t5.5 2q1 -2 0 -6q-8 -30 -8 -44q0 -30 25.5 -48.5t95.5 -18.5q14 0 27 1t25 3q56 9 98 51q5 5 7 22zM293 294q-47 -101 -93 -157l-28 -33q-10 -12 -15 -17 q-26 -26 -45 -26q-36 0 -36 47q0 49 45 120q25 38 66 65q43 27 73 25q34 -1 34 -18q0 -4 -1 -6z" />
<glyph unicode="b" horiz-adv-x="395" d="M302 156q28 74 28 126q0 72 -54 102q-15 9 -31 9q-25 0 -42.5 -21t-17.5 -47q0 -32 25 -48l24 -13q12 -6 11 -12q-10 -111 -92 -177q-11 -10 -27 -10q-35 0 -34 40t30 147q13 48 22.5 77.5t14.5 42.5q17 37 29 54q50 66 70 129q10 30 10 57q0 49 -40 55q-53 8 -93 -64 q-30 -54 -79 -210q-65 -216 -65 -284q0 -98 78 -111q16 -3 34 -3q73 0 134 59q44 44 65 102z" />
<glyph unicode="c" horiz-adv-x="348" d="M358 73q2 22 -5 39q-3 9 -8 3q-10 -14 -24 -25t-31 -21q-28 -16 -49 -18q-81 -5 -120 32q-35 32 -35 79q0 20 4 40q12 72 56 104q32 21 63 17q13 -2 17.5 -9t6.5 -14.5t4.5 -13.5t11.5 -6q10 -3 18 2q31 16 27 60q-4 56 -101 61q-65 3 -127 -47q-70 -58 -87 -163 q-3 -17 -3 -34q0 -87 77 -131q61 -32 146 -32q15 0 28.5 1t25.5 3q56 9 98 51q5 5 7 22z" />
<glyph unicode="d" horiz-adv-x="514" d="M524 73q2 22 -5 39q-3 9 -8 3q-10 -14 -24 -25.5t-31 -21.5q-30 -18 -49 -18q-51 0 -67 16q-10 10 -2 57q10 51 66 211l65 161l53 125q7 19 -8 34q-5 5 -32 10q-26 3 -36 0q-19 -4 -33 -25q-5 -6 -49 -120l-32 -82q-12 -30 -14 -38q-3 -10 -17 -7q-28 5 -46.5 8t-28.5 2 q-41 -3 -91 -30q-80 -44 -117 -127t-37 -146q0 -49 25 -78q27 -32 74 -32q73 0 165 122q7 10 10 10q2 0 1 -7q-4 -20 -5.5 -32.5t-1.5 -17.5q0 -30 26.5 -49t94.5 -19q13 0 25.5 1t23.5 3q56 9 98 51q5 5 7 22zM287 310q-2 -8 -10 -25l-22 -45l-29 -52q-12 -22 -22 -36 l-26 -38q-10 -14 -15 -19q-26 -29 -49 -29q-33 0 -33 38q0 45 47 124q30 50 78 77q37 21 62 20q23 -2 19 -15z" />
<glyph unicode="e" horiz-adv-x="386" d="M396 73q2 22 -5 39q-3 9 -8 3q-43 -58 -105 -64q-95 -9 -139 16q-12 6 -12 10q0 1 5 6q19 14 38.5 31.5t39.5 39.5q64 69 72 117q3 18 3 34q0 72 -58 97q-15 7 -41 7q-46 0 -89 -24q-52 -28 -81 -85q-40 -79 -40 -148q0 -79 54 -124q47 -38 162 -38q55 0 99 9 q56 10 98 52q5 5 7 22zM193 331q29 0 29 -34q0 -24 -22 -61q-35 -60 -102 -102q-20 -14 -20 18q0 45 32 112q14 30 38.5 48.5t44.5 18.5z" />
<glyph unicode="f" horiz-adv-x="385" d="M395 73q2 22 -5 39q-3 9 -8 3q-10 -14 -24 -25.5t-31 -21.5q-30 -18 -49 -18q-39 0 -72 11q-9 3 -14 17q-9 30 -27 43q-15 10 -15 18q0 6 10 13q42 28 99 96q70 83 100 163q40 104 40 161q0 82 -72 100q-14 3 -26 3q-104 0 -201 -235q-39 -96 -84 -253l-32 -118 q-12 -44 -17 -60q-11 -48 -17 -84t-6 -62q0 -78 50 -89q16 -4 35 -4q106 0 156 147q7 19 11 37.5t6 36.5q1 9 12 7q28 -6 76 2q34 4 67 26q16 10 31 25q5 5 7 22zM299 594q21 -3 21 -30q0 -38 -42 -125q-64 -130 -132 -212q-11 -12 -14 -12q-2 0 -2 3q0 6 6 21l48 134 l42 117q39 108 73 104zM130 2q0 -28 -15 -68q-36 -97 -65 -89q-14 3 -14 22q0 7 21 84q19 70 23 79q4 13 10 13q3 0 6 -3q20 -19 29 -24q5 -3 5 -14z" />
<glyph unicode="g" horiz-adv-x="518" d="M528 73q2 22 -5 39q-3 9 -8 3q-18 -22 -47 -42q-35 -23 -57 -23q-48 -2 -81 -9q-3 -1 -7 -1q-2 1 0 6q1 1 1 2t1 3l63 162q59 154 59 161q0 16 -17 24q-9 4 -31 5t-29 -1q-17 -8 -21 -15q-10 -22 -21 -22q-6 0 -10 6q-35 21 -76 21q-64 0 -128 -45q-63 -45 -98 -110 t-35 -138q0 -100 87 -107q45 -4 104 35q47 32 61 56q4 7 9 7q8 0 3 -8l-27 -61l-27 -57q-7 -5 -14 -9q-25 -13 -52 -39q-31 -30 -42.5 -52.5t-11.5 -41.5q0 -23 15 -36t37 -13q32 0 70 34q41 33 90 148q12 29 77 38q21 2 36.5 4t26.5 3q56 9 98 51q5 5 7 22zM305 292 q-22 -56 -66 -118q-80 -111 -120 -111q-35 0 -35 43q0 39 39 102q15 24 33 45t37.5 36t39 24t37.5 9q15 0 28 -6.5t7 -23.5z" />
<glyph unicode="h" horiz-adv-x="506" d="M516 73q2 22 -5 39q-3 9 -8 3q-10 -14 -24 -25.5t-31 -21.5q-30 -18 -49 -18q-40 0 -62 9t-22 31q0 17 7 37l36 107l28 82q3 10 3 20q0 50 -44 64q-12 4 -29 4q-49 0 -86 -36q-12 -12 -26 -28l-31 -36l-23 -29l-11 -15q-1 -4 -4 -4q-10 0 -3 16l37 94l91 234q6 15 6 26 q0 15 -15 27q-7 5 -34 7q-26 0 -36 -3q-18 -6 -29 -29q-12 -28 -79 -244q-38 -126 -61.5 -213.5t-33.5 -138.5q-5 -29 20 -35q9 -3 39 3q20 3 28 29q20 63 78 151q68 103 100 122q16 10 26 10t10 -12q0 -6 -1 -9l-16 -44l-15 -44q-28 -82 -33 -110q-1 -8 -1.5 -14.5 t-0.5 -10.5q0 -31 34.5 -52t109.5 -21q15 0 28.5 1.5t26.5 3.5q56 9 98 51q5 5 7 22z" />
<glyph unicode="i" horiz-adv-x="273" d="M247 579q8 14 8 33q0 34 -32 48q-9 3 -19 3q-40 0 -53 -27q-14 -26 -14 -47q0 -31 32 -45q9 -4 21 -4q33 0 57 39zM283 73q2 22 -5 39q-3 9 -8 3q-10 -14 -24 -25.5t-31 -21.5q-30 -18 -49 -18q-52 0 -72 17q-7 6 -7 19q0 11 8 38l43 128l39 117q2 12 -3.5 23t-14.5 13 q-33 9 -71 -2q-17 -5 -23 -30l-19 -64l-20 -64q-17 -57 -25.5 -91.5t-9.5 -45.5q0 -18 1.5 -31t7 -23.5t14.5 -20t24 -20.5q25 -17 89 -17q14 0 26.5 1t24.5 3q56 9 98 51q5 5 7 22z" />
<glyph unicode="j" horiz-adv-x="273" d="M234 579q8 14 8 33q0 34 -32 48q-9 3 -19 3q-40 0 -53 -27q-14 -26 -14 -47q0 -31 32 -45q9 -4 21 -4q33 0 57 39zM283 73q2 22 -5 39q-3 9 -8 3q-10 -14 -24 -25.5t-31 -21.5q-30 -18 -49 -18q-65 0 -80 -4q-6 -1 -7 0q-2 2 -1 9l9 37q4 17 8 31l43 131l39 115 q2 12 -3.5 23t-14.5 13q-33 9 -71 -2q-17 -5 -23 -30l-22 -70l-22 -70q-19 -69 -29 -119t-11 -82q0 -20 -6 -30q-7 -16 -12 -30l-9 -25q-5 -12 -12 -16q-72 -45 -72 -105q0 -32 25 -45q14 -8 29 -8q37 0 72 48q7 10 14.5 27.5t17.5 43.5t16.5 41t9.5 20q19 28 33 36 q12 5 32 5q32 2 59 6q56 9 98 51q5 5 7 22z" />
<glyph unicode="k" horiz-adv-x="434" d="M444 73q2 22 -5 39q-3 9 -8 3q-10 -14 -24 -25.5t-31 -21.5q-30 -18 -49 -18q-39 0 -51 4q-27 7 -22 37q11 57 12 76q3 27 -23 42q-12 7 -3 13q76 54 96 125q3 12 3 22q0 33 -40 37q-37 4 -43 -34q-5 -30 -21 -70q-7 -18 -12.5 -30t-9.5 -17q-17 -22 -24 -23 q-14 -1 -25 -1.5t-19 0.5q-8 -2 -10 0q-3 2 -2 5q1 5 2 9l2 8l67 187l64 175q3 9 3 17q0 28 -48 30q-55 1 -69 -35q-17 -45 -93 -294q-85 -279 -90 -314q-3 -23 37 -23q44 0 51 19l23 66l17 51q8 24 15 23q24 -2 51 7q20 7 15 -13q-7 -41 -10.5 -65.5t-2.5 -32.5 q1 -23 36.5 -39t86.5 -16q26 0 49 4q56 9 98 51q5 5 7 22z" />
<glyph unicode="l" horiz-adv-x="261" d="M271 73q2 22 -5 39q-3 9 -8 3q-10 -14 -24 -25.5t-31 -21.5q-30 -18 -49 -18q-54 0 -68 14q-7 7 -7 20q0 11 7 39q22 99 78 267q15 34 21 42q48 64 69 126q6 19 6 36q0 27 -13.5 44.5t-34.5 19.5q-62 5 -96 -85q-32 -81 -69 -211q-46 -162 -54 -242q-1 -12 -1.5 -21 t-0.5 -16q0 -53 40 -75q30 -14 75 -14q28 0 60 6q56 9 98 51q5 5 7 22z" />
<glyph unicode="m" horiz-adv-x="714" d="M724 73q2 22 -5 39q-3 9 -8 3q-19 -27 -55 -47q-30 -17 -49 -18q-39 -2 -58 10q-14 8 -14 23q0 6 3 17q1 2 9 24l24 65q30 79 39 114q6 21 6 38q0 39 -32 54q-19 10 -40 10q-38 0 -85 -38q-30 -25 -66 -71q-30 -38 -31 -38q-5 0 3 17q19 42 19 73q0 47 -50 56 q-5 1 -9 1.5t-8 0.5q-78 0 -166 -133q-17 -26 -17 -11q0 10 17 58q14 39 24 58q4 7 4 14q0 15 -22 24q-15 7 -35 7q-42 0 -49 -30l-53 -195l-50 -177q-5 -24 43 -24t56 20q13 30 66 125q59 108 87 140q36 43 57 40q19 -3 9 -31l-56 -143l-50 -129q-8 -23 47 -23q49 0 57 23 q6 19 25 53t51 83l48 71l39 54q27 34 41 34q15 0 15 -15q0 -11 -13 -36q-9 -18 -19 -41.5t-21 -52.5q-25 -68 -25 -96q0 -47 55 -68q31 -11 75 -11q30 0 62 6q56 9 98 51q5 5 7 22z" />
<glyph unicode="n" horiz-adv-x="491" d="M501 73q2 22 -5 39q-3 9 -8 3q-10 -14 -24 -25.5t-31 -21.5q-30 -18 -49 -18q-42 0 -57 9t-15 24q0 6 3 17q1 2 9 24l24 65q30 79 39 114q7 25 7 45q0 39 -39 56q-14 6 -30 6q-75 0 -179 -131q-4 -7 -10 -7t-1 12q25 76 33 105q4 18 -3 25t-34 8q-26 1 -36 -3 q-20 -7 -28 -27q-3 -8 -15 -54l-34 -134q-44 -177 -45 -190q-1 -16 14 -21q29 -9 59 9q12 8 16 24q5 16 18 44t35 70q52 99 93.5 140t61.5 35q9 -3 9 -13q0 -14 -12 -36q-8 -17 -18 -40.5t-21 -54.5q-24 -71 -24 -98q0 -47 54 -68q56 -20 138 -5q56 9 98 51q5 5 7 22z" />
<glyph unicode="o" horiz-adv-x="412" d="M322 360q-20 11 -38 11q-55 0 -55 -64q0 -34 22 -50q11 -8 11 -21q0 -14 -16 -59q-18 -56 -36 -81q-33 -47 -74 -47q-14 0 -27 7q-18 10 -18 40q0 41 33 115q22 49 66 102q33 42 48 50q18 10 8 23q-7 10 -32 10q-51 -2 -109 -46q-66 -50 -92 -127q-21 -65 -21 -110 q0 -82 70 -112q31 -12 65 -12q118 0 183 131q43 87 43 159q0 63 -31 81z" />
<glyph unicode="p" horiz-adv-x="482" d="M492 73q2 22 -5 39q-3 9 -8 3q-18 -26 -53 -46q-29 -15 -49 -18q-53 -7 -83 5q-9 3 3 15q17 17 45 59q40 61 45 102q6 46 6 64q0 60 -59 89q-20 10 -43 10q-62 0 -148 -101q-3 -4 -5 -2q-2 1 0 9q14 53 23.5 84t13.5 42q9 22 -13 32q-8 4 -33 4q-24 -2 -30 -4 q-14 -6 -21 -21l-44 -156l-42 -151l-64 -209q-26 -84 -42 -126q-6 -17 12 -26q22 -12 69 0q20 4 28 23l29 104l28 98q5 6 13 5q35 -4 51 -5.5t13 -1.5l40 7q17 3 28 7q8 2 17 -2q25 -9 90 -12q18 -1 39 0.5t44 6.5q56 9 98 51q5 5 7 22zM299 263q-1 -34 -27 -88t-57 -90 q-13 -15 -17 -13q-26 15 -73 15q-18 0 -27 -3.5t-14 -2.5t-3 9q10 33 63 114q56 84 85 101q14 8 27 8q19 0 31.5 -13.5t11.5 -36.5z" />
<glyph unicode="q" horiz-adv-x="514" d="M524 73q2 22 -5 39q-3 9 -8 3q-10 -14 -24 -25.5t-31 -21.5q-30 -18 -49 -18q-65 0 -77 -4q-10 -3 -11 0q0 3 5 21l48 157l44 143q3 7 3 13q0 23 -43 24q-45 3 -54 -16q-7 -19 -21 -11q-34 22 -75 22q-69 0 -130 -52q-52 -44 -86 -114q-29 -61 -29 -116q0 -99 83 -119 q10 -3 22 -3q69 0 140 89q14 17 16 17t2 -3t-3 -12q-1 -1 -46 -140q-40 -119 -41 -133q-4 -42 41 -43q51 -1 62 44q5 22 9.5 44t9.5 44q19 70 50 85q16 8 36 8q17 1 31 2t26 3q56 9 98 51q5 5 7 22zM254 333q34 0 34 -24q0 -36 -59 -128l-34 -51q-14 -20 -22 -29 q-30 -36 -58 -36q-10 0 -17 3q-21 7 -21 37q0 58 56 135q67 93 121 93z" />
<glyph unicode="r" horiz-adv-x="414" d="M424 73q2 22 -5 39q-3 9 -8 3q-19 -27 -55 -47q-30 -17 -49 -18q-36 -2 -48 1q-29 6 -23 35q2 9 10.5 32.5t24.5 61.5q32 78 35 94q4 26 -16 43q-12 10 -48 30q-18 10 -30 15.5t-19 9t-9 6.5t0 9q6 17 5 26q-4 48 -43 49q-46 1 -57 -56q-1 -5 -1.5 -10t-0.5 -9 q0 -13 6 -25t7 -18q0 -1 -0.5 -2.5t-1.5 -5.5q-18 -65 -51 -132q-30 -61 -50 -86q-29 -33 -45 -45q-22 -16 -58 -24q-4 -1 -4 -10q0 -18 7 -33q3 -8 9 -6q44 7 83 37q63 52 105 135q1 2 14 34l38 93q5 14 13 9q33 -18 40 -32q7 -15 0 -27q-8 -13 -24 -58q-11 -29 -18.5 -54 t-12.5 -48q-3 -14 -3 -24q0 -40 43.5 -60t134.5 -5q54 7 98 51q5 5 7 22z" />
<glyph unicode="s" horiz-adv-x="414" d="M424 73q2 22 -5 39q-3 9 -8 3q-19 -27 -55 -47q-30 -17 -49 -18q-42 -2 -50 3.5t-1 12.5q9 9 24 36q10 19 14.5 35.5t5.5 30.5q2 52 -23 101q-10 20 -19 34t-19 22q-5 4 0 18l6 13l11 22q11 21 13 34q1 37 -48 39q-25 1 -54 -17q-27 -16 -32 -41q-1 -5 -1.5 -9.5 t-0.5 -8.5q0 -13 5.5 -25.5t4.5 -19.5q-9 -27 -67 -109l-46 -63l-34 -43q-50 -56 -102 -65q-4 -1 -4 -11q0 -18 7 -33q1 -6 10 -6q46 9 76 33q4 4 10 -1q41 -42 114 -38q35 2 53 6q1 1 25 10q7 2 12 -1q13 -9 56 -12q37 -2 66 3q56 9 98 51q5 5 7 22zM186 135 q-19 -61 -67 -77q-19 -6 -21 2q-6 26 -23 34q-12 4 -12 10q0 3 5 10q13 15 51 63q43 57 47 66q3 7 8 7q5 2 8 -5q11 -24 11 -61q0 -28 -7 -49z" />
<glyph unicode="t" horiz-adv-x="279" d="M289 73q2 22 -5 39q-3 9 -8 3q-10 -14 -24 -25.5t-31 -21.5q-30 -18 -49 -18q-40 0 -64 24q-17 17 -7 50l29 98l25 86q4 9 12 9q72 0 68 -1q10 1 13 9q9 20 7 34q-2 12 -8 13q-17 1 -32 1.5t-27 0.5q-10 3 -8 12l28 90l28 85q4 25 -11 30q-38 10 -75 0q-17 -5 -21 -15 l-30 -98l-26 -90q-7 -10 -12 -10h-6h-10h-16q-14 0 -21 -9q-4 -11 -6 -19l-5 -14q-5 -12 4 -14q12 -1 21.5 -1.5t17.5 -0.5q10 -3 9 -10q-1 -2 -7 -24l-18 -64q-25 -85 -26 -108q-5 -67 44 -99q32 -20 91 -20q23 0 51 5q56 9 98 51q5 5 7 22z" />
<glyph unicode="u" horiz-adv-x="494" d="M504 73q2 22 -5 39q-3 9 -8 3q-10 -14 -24 -25.5t-31 -21.5q-30 -18 -49 -18q-50 0 -69 19q-12 12 -3 56q5 22 39 122q32 97 39 110t7 23q0 18 -47 23q-51 5 -62 -34q-7 -22 -19 -53.5t-31 -74.5q-50 -112 -82 -144q-27 -27 -42 -27q-27 0 -27 22q0 6 2 14l3 20 q4 23 42 121l27 69q10 27 16 41q5 12 5 18q0 20 -40 32q-22 7 -39 7q-25 0 -32 -22q-82 -248 -86 -295q-1 -8 -1.5 -14.5t-0.5 -11.5q0 -54 45 -70q19 -6 39 -6q80 0 158 112q2 4 4 6l3 3q2 2 2 -1q0 -4 -1 -8q-6 -30 -6 -46q0 -31 20 -45q31 -21 97 -21q14 0 26.5 1.5 t25.5 3.5q56 9 98 51q5 5 7 22z" />
<glyph unicode="v" horiz-adv-x="376" d="M326 329q3 69 -54 69q-31 0 -51.5 -21.5t-21.5 -53.5q-1 -27 17 -47l13 -13q2 -5 -1 -21q-4 -17 -13 -39t-25 -50q-31 -56 -54.5 -77.5t-43.5 -21.5q-31 0 -31 35q0 70 91 251q8 16 8 28q0 29 -37 36q-20 4 -31 4q-18 0 -30 -17q-22 -30 -54 -118q-20 -57 -29.5 -101 t-7.5 -77q4 -75 64 -96q16 -6 34 -6q50 0 105 40q42 30 92 117q57 99 60 179z" />
<glyph unicode="w" horiz-adv-x="567" d="M517 329q1 33 -18 52q-16 16 -41 16q-30 0 -47 -23t-18 -54q-1 -43 30 -55q5 -2 2 -27q-4 -31 -33 -82q-28 -48 -53 -72q-26 -25 -48 -25q-27 0 -27 29q0 45 27 122q9 26 18 48t17 39q7 13 7 23q0 20 -39 28q-5 1 -9.5 1.5t-9.5 0.5q-32 0 -44 -29q-32 -80 -47 -161 q-4 -20 -17 -34l-25 -29q-10 -8 -20.5 -14.5t-22.5 -10.5q-8 -3 -14 -3q-25 0 -23 33q3 55 43 154q29 73 51 112q2 6 2 8q0 24 -41 24q-26 0 -36 -2q-17 -5 -27 -20q-37 -61 -60 -140q-26 -84 -23 -145q1 -41 20 -69q22 -33 63 -30q59 5 110 48q13 12 19 -2q13 -33 48 -42 q21 -7 42 -7q45 0 97 37q43 32 90 119q54 100 57 182z" />
<glyph unicode="x" horiz-adv-x="414" d="M424 73q2 22 -5 39q-3 9 -8 3q-10 -14 -24 -25.5t-31 -21.5q-30 -18 -49 -18q-43 0 -51 4q-36 16 -63 57q-8 12 -15 36l-6 21l-8 33q-1 10 3 17q16 21 38 45t50 50q28 27 63 27q27 0 24 30q-3 31 -39 31q-16 0 -33 -7q-35 -14 -119 -105q-7 -7 -10 7q-4 16 -8 28.5 t-9 23.5q-26 57 -72 57q-19 0 -34 -12.5t-14 -31.5q1 -10 3.5 -13.5t10.5 -9.5q11 -12 12 -19q12 -28 33 -110q5 -14 -3 -22l-41 -47l-23 -26q-59 -66 -117 -65q-7 0 -10 -8q-4 -11 -5.5 -21.5t-2.5 -18.5q0 -3 4 -4t14 0q63 4 114 42q42 32 83 79q7 7 11 -3q25 -76 94 -109 q48 -23 138 -6q56 9 98 51q5 5 7 22z" />
<glyph unicode="y" horiz-adv-x="485" d="M495 73q2 22 -5 39q-3 9 -8 3q-18 -22 -47 -42q-33 -21 -57 -23q-20 -1 -33 -1q-12 0 -16 -1q-27 -3 -32 -4t-6 -1q-2 2 -2 4q2 3 3 10q107 312 107 319q0 16 -17 24q-9 4 -26 5q-18 2 -23 0q-17 -6 -21 -15l-35 -78l-34 -77q-55 -110 -89 -136q-28 -21 -54 -13 q-20 7 -18 48q1 17 42 124q39 100 48 114q11 17 -2 27q-23 17 -46 17q-4 0 -8.5 -0.5t-9.5 -1.5q-20 -3 -29 -18q-11 -19 -24.5 -48.5t-27.5 -70.5q-37 -107 -37 -179q0 -8 0.5 -16t1.5 -15q2 -13 9 -25t16.5 -21t20.5 -15t21 -6q46 -5 102 41q41 35 59 65q4 7 9 7q8 0 3 -8 l-48 -129q-4 -10 -8 -12q-17 -10 -46 -36q-34 -32 -48 -59q-15 -30 -15 -51q0 -40 43 -40q28 0 69 35q22 19 53 79q32 64 34 67q19 21 26 27q9 6 37 8q42 1 63 6q56 9 98 51q5 5 7 22z" />
<glyph unicode="z" horiz-adv-x="410" d="M420 73q2 22 -5 39q-3 9 -8 3q-20 -26 -52 -45q-30 -18 -55 -19q-60 -5 -80 1q-5 2 -7 5q-14 19 -16 22l-10 10q-5 5 -11 10q-15 12 -2 15q36 9 67 36q45 40 49 93q1 8 1 14v14q0 105 -102 128q-12 3 -23 3q-34 0 -57.5 -20.5t-23.5 -48.5t18 -28q5 0 15 6.5t22 6.5 q14 0 28 -9q27 -20 27 -47q0 -10 -5 -27q-12 -34 -64 -59q-43 -21 -69 -19q-25 1 -31 -23q-6 -27 5 -29q58 -8 90 -44q9 -11 9 -15t-10 -7l-50 -16q-18 -6 -25 -10q-60 -28 -85 -79q-19 -38 -19 -69q0 -50 53 -80q25 -15 64 -15q88 0 134 70q50 74 47 141q-1 7 -1 10t0 1 q0 3 5 3q27 -3 72 5q56 9 98 51q5 5 7 22zM140 -27q-2 -28 -7 -47q-7 -30 -32 -56q-29 -29 -55 -29q-16 0 -26.5 10.5t-10.5 25.5q0 25 22 51q37 46 82 54q19 4 24 1q3 -2 3 -10z" />
<glyph unicode="{" horiz-adv-x="444" d="M75 195q25 0 39 -20t13 -46q-1 -13 -3.5 -26.5t-7.5 -28.5l-63 -185q-10 -29 -10 -57q0 -31 21 -53t52 -22h72l21 62h-50q-29 0 -29 34q0 20 11 53l63 184q12 34 12 65q0 26 -14 46.5t-38 25.5l1 3q28 4 63 32q48 39 69 101l64 186q30 87 78 87h50l21 62h-72 q-108 0 -153 -132l-64 -187q-9 -26 -23 -47t-31 -37t-35 -24.5t-34 -8.5z" />
<glyph unicode="|" horiz-adv-x="222" d="M82 0h58v722h-58v-722z" />
<glyph unicode="}" horiz-adv-x="444" d="M320 259q-25 0 -39 20t-13 46q1 13 3.5 26.5t7.5 28.5l63 186q10 29 10 57q0 31 -21 53t-52 22h-72l-21 -62h50q29 0 29 -34q0 -20 -11 -53l-63 -185q-12 -35 -12 -65q0 -26 14 -46.5t38 -25.5l-1 -3q-28 -4 -63 -32q-48 -39 -69 -101l-64 -185q-30 -87 -77 -87h-50 l-21 -62h72q107 0 152 132l64 186q9 25 23 46.5t31 37.5t34.5 24.5t34.5 8.5z" />
<glyph unicode="~" d="M495 254q-47 -72 -88 -72q-20 0 -102 36q-75 32 -111 32q-80 0 -125 -86l36 -62q33 72 84 72t115 -35q60 -33 102 -33q40 0 75 27q20 17 50 59z" />
<glyph unicode="&#xa1;" horiz-adv-x="480" d="M112 61q-2 -8 -2 -13q0 -32 40 -45q28 -9 46 -9q25 0 33 21l18 63l42 151l40 147l16 57q4 25 -21 32q-40 10 -50 -5q-7 -10 -82 -196l-56 -142q-20 -50 -24 -61zM307 618q-4 -13 -4 -28q0 -51 49 -55q30 -3 46.5 9t28.5 51q3 12 3 22q0 42 -45 47q-27 3 -49 -9t-29 -37z " />
<glyph unicode="&#xa2;" horiz-adv-x="481" d="M326 317q20 0 24 7q3 5 7 15.5t9 25.5q10 30 10 40q0 44 -63 58q4 14 11 35l17 50q13 35 13 51q0 19 -38 19q-10 0 -24 -41q-29 -83 -42 -114q-79 -13 -148 -82q-71 -73 -71 -149q0 -57 21.5 -87t73.5 -43l-14 -40l-24 -64q-18 -50 -18 -57q0 -27 49 -27q12 0 25 43 l30 87l20 58q52 4 102 30q35 19 59 33.5t36 25.5q8 8 8 29q0 33 -2 45.5t-9 12.5q2 0 -33 -26q-39 -30 -77 -50q-54 -26 -96 -26q-55 0 -55 51q0 58 53 117q46 52 80 52q18 0 18 -16q0 -7 -10 -30q-9 -23 -9 -24q0 -9 9 -9h58z" />
<glyph unicode="&#xa3;" horiz-adv-x="481" d="M77 275q-12 0 -16 -12l-17 -42l-5 -14q0 -6 11 -6h82q-26 -71 -63 -108q-33 4 -48 5.5t-13 1.5q-31 0 -59 -12q-35 -17 -35 -43q0 -50 82 -50q41 0 87 17q51 -12 95 -12q75 0 127.5 1.5t81.5 5.5l25 88q-111 -21 -177 -21q-71 0 -72 6q28 35 66 121h91q5 0 8 10.5 t12 33.5q8 21 8 26q0 4 -13 4h-78l16 46q21 59 50 106q36 56 65 56q22 0 24 -21q2 -17 -22 -67q-23 -51 -23 -54t14 -3q9 0 79 16q34 74 34 112q0 45 -26 73t-71 28q-123 0 -199 -198l-36 -94h-85z" />
<glyph unicode="&#xa4;" horiz-adv-x="481" d="M51 108l36 -35l41 43q43 -40 114 -40q67 0 111 41l42 -44l35 35l-41 42q37 46 37 113q0 70 -37 110l41 41l-38 38l-42 -41q-42 36 -107 36q-70 0 -113 -37l-42 42l-37 -37l43 -43q-39 -39 -39 -111q0 -63 37 -109zM243 390q51 0 86 -38q36 -38 36 -89q0 -53 -36 -92 q-35 -38 -87 -38t-89 37t-37 91t37 91q38 38 90 38z" />
<glyph unicode="&#xa5;" horiz-adv-x="481" d="M289 290l38 39h97q8 0 14 19q4 12 4 21q0 8 -6 8h-66l168 180q3 3 3 6q0 4 -30 4q-28 0 -32 -4l-197 -211l-41 203q-2 12 -55 12q-51 0 -51 -14q0 -2 3 -17l32 -159h-73q-8 0 -14 -12t-6 -19q0 -17 5 -17h97l8 -39h-88q-8 0 -14 -12t-6 -19q0 -17 5 -17h92l-77 -211 q-7 -18 -7 -20q0 -11 50 -11q48 0 53 14l82 228h98q8 0 14 19q4 12 4 21q0 8 -6 8h-98z" />
<glyph unicode="&#xa6;" horiz-adv-x="222" d="M82 0h58v270h-58v-270zM82 452h58v270h-58v-270z" />
<glyph unicode="&#xa7;" horiz-adv-x="556" d="M328 150q61 -3 103 33q43 36 43 96q0 58 -49 119l-45 50l-46 50q-49 55 -49 100q0 22 26 39q22 13 47 13q41 0 66 -22q7 -5 32 -39q16 -22 36 -22q37 0 37 40q0 38 -51 76q-54 39 -117 39q-68 0 -111 -30q-51 -35 -51 -98q0 -44 31 -90q-70 0 -101 -24q-50 -38 -50 -108 q0 -54 49 -116l46 -51l45 -50q49 -55 49 -90q0 -12 -6 -23t-15.5 -19.5t-22 -13t-25.5 -4.5q-41 0 -69 22q-12 9 -36 39q-16 22 -30 22q-15 0 -26 -10t-11 -25q0 -52 52 -86q46 -33 108 -33q83 0 126 40q41 38 41 101q0 17 -8 36zM388 269q0 -57 -71 -57q-36 0 -95 65 q-57 64 -57 103q0 62 64 62q47 0 102 -64q57 -63 57 -109z" />
<glyph unicode="&#xa8;" horiz-adv-x="273" d="M387 579q8 14 8 33q0 34 -32 48q-9 3 -19 3q-40 0 -53 -27q-14 -26 -14 -47q0 -31 32 -45q9 -4 21 -4q33 0 57 39zM247 579q8 14 8 33q0 34 -32 48q-9 3 -19 3q-40 0 -53 -27q-14 -26 -14 -47q0 -31 32 -45q9 -4 21 -4q33 0 57 39z" />
<glyph unicode="&#xa9;" horiz-adv-x="800" d="M401 -23q150 0 256 100q110 104 110 261q0 156 -110 260q-106 100 -256 100q-152 0 -258 -100q-110 -104 -110 -260q0 -157 110 -261q106 -100 258 -100zM115 338q0 127 82 212t204 85q119 0 202 -86q82 -85 82 -211q0 -129 -82 -214q-81 -85 -202 -85q-122 0 -204 85 t-82 214zM521 273q-6 -40 -34.5 -63.5t-73.5 -23.5q-59 0 -96 45q-36 45 -36 109q0 67 34.5 109t95.5 42q42 0 72 -22.5t38 -60.5h68q-9 72 -60 112q-49 38 -118 38q-96 0 -152 -62t-56 -157t57 -156q58 -64 153 -64q67 0 115.5 41t61.5 113h-69z" />
<glyph unicode="&#xab;" horiz-adv-x="407" d="M325 192l49 47l31 29q-28 -2 -46 -3t-28 -1h-21q-10 0 -21 1q-17 -25 -43 -54t-61 -64l32 -57q16 -28 25 -63q9 1 18.5 1.5t20.5 0.5q-3 0 65 -3q-29 40 -42 66q-20 40 -30 55q34 28 51 45zM179 189q29 37 77 79q-26 -2 -44 -3t-28 -1h-22q-10 0 -21 1q-36 -60 -89 -119 q49 -73 64 -119q8 1 17.5 1.5t20.5 0.5q-3 0 65 -3l-45 72l-33 50q8 7 17.5 17t20.5 24z" />
<glyph unicode="&#xad;" horiz-adv-x="386" d="M276 194q20 0 33 15t13 36q0 18 -20 20q-69 1 -127.5 2t-109.5 0q-26 3 -41 -31q-11 -25 -11 -32q0 -11 14 -9q36 3 134 0q17 -1 45 -1h70z" />
<glyph unicode="&#xae;" horiz-adv-x="800" d="M401 -23q150 0 256 100q110 104 110 261q0 156 -110 260q-106 100 -256 100q-152 0 -258 -100q-110 -104 -110 -260q0 -157 110 -261q106 -100 258 -100zM115 338q0 127 82 212t204 85q119 0 202 -86q82 -85 82 -211q0 -129 -82 -214q-81 -85 -202 -85q-122 0 -204 85 t-82 214zM328 309h65l107 -179h74l-116 182q109 12 109 113q0 119 -151 119h-156v-414h68v179zM328 365v123h82q89 0 89 -58q0 -42 -28 -55q-19 -10 -67 -10h-76z" />
<glyph unicode="&#xb0;" horiz-adv-x="400" d="M230 521q42 0 66.5 -27t24.5 -70t-24.5 -70t-66.5 -27t-66.5 27t-24.5 70t24.5 70t66.5 27zM230 281q60 0 101 41q42 42 42 102t-42 101q-41 42 -101 42t-102 -42q-41 -41 -41 -101q0 -59 41 -102q43 -41 102 -41z" />
<glyph unicode="&#xb1;" d="M271 248h-149v-58h149v-108h58v108h149v58h-149v108h-58v-108zM122 0h356v58h-356v-58z" />
<glyph unicode="&#xb4;" horiz-adv-x="494" d="M432 680q-1 13 -43 11q-32 -2 -47 -7q-11 -5 -14 -13q-13 -40 -26 -56q-34 -38 -52 -48q-10 -4 -10 -13q0 -7 10 -14q19 -11 42 -2q52 19 96 63q49 47 44 79z" />
<glyph unicode="&#xb6;" d="M58 -190h82l283 824h115l-283 -824h82l304 888h-260q-232 0 -297 -188q-10 -29 -10 -58q0 -57 42 -90.5t120 -33.5z" />
<glyph unicode="&#xb7;" horiz-adv-x="240" d="M95 108q28 0 49 21.5t21 48.5t-21 48.5t-49 21.5t-49 -21.5t-21 -48.5t21 -48.5t49 -21.5z" />
<glyph unicode="&#xb8;" horiz-adv-x="222" d="M16 0l-36 -76q-3 -6 -3 -7q0 -6 5 -6q1 0 11 1.5t14 1.5q44 0 44 -35q0 -46 -55 -46q-49 0 -96 34l-22 -35q55 -37 129 -37q47 0 82 20q40 24 40 67q0 29 -21 49.5t-59 20.5q-4 0 -12 -1t-12 -1l26 50h-35z" />
<glyph unicode="&#xbb;" horiz-adv-x="407" d="M242 27q25 50 112 117q-28 39 -54 122q-17 -2 -29.5 -3t-22.5 -1q-7 0 -23.5 1.5t-43.5 5.5q30 -32 60 -78q19 -29 23 -33q-23 -20 -39 -35.5t-26 -26.5q-30 -35 -75 -71q73 6 70 6q7 0 19 -1t29 -3zM100 27q27 52 117 117q-35 43 -59 122q-17 -2 -29.5 -3t-22.5 -1 q-7 0 -24 2t-45 6l27 -28l12 -12q9 -11 24 -36q14 -24 26 -36q-32 -22 -69 -62q-29 -33 -74 -71q72 6 69 6q7 0 19 -1t29 -3z" />
<glyph unicode="&#xbf;" horiz-adv-x="501" d="M110 125q0 -94 82 -119q31 -9 61 -9q26 0 56 8q25 8 29 25q9 32 3 61q-4 21 -27 10q-19 -10 -47 -10q-18 0 -29 6t-17.5 15t-9 19.5t-2.5 19.5q0 40 54 106q105 128 115 183q6 31 -4 35q-14 8 -41 8q-17 -2 -26 -22q-8 -20 -13.5 -32.5t-7.5 -16.5q-13 -20 -39 -50 l-64 -73q-73 -77 -73 -164zM395 665q-15 0 -29 -6t-24.5 -16t-16.5 -23t-6 -28q0 -27 18 -42.5t45 -15.5q47 0 63 46q6 16 6 31q0 54 -56 54z" />
<glyph unicode="&#xc0;" horiz-adv-x="606" d="M616 73q2 22 -5 39q-3 9 -8 3q-22 -30 -55 -47q-32 -18 -55 -16q-27 3 -34 7q-13 7 -13 27t10 54q10 32 29.5 85t49.5 128l39 95l26 58q6 12 6 21q0 23 -31 27q-46 7 -61 -24l-78 -150q-34 -62 -59 -101q-133 -205 -215 -205q-13 0 -22 4q-39 13 -39 59q0 49 45 132 q18 33 36.5 60t37.5 49q181 204 334 220q40 4 40 17q0 5 -14 25q-17 23 -42 23q-80 0 -195 -61q-130 -69 -215 -174q-137 -169 -137 -305q0 -75 46 -106q36 -24 78 -24q76 0 165 81q63 57 101 121q4 6 7 6q7 0 2 -11q-37 -84 -37 -136q0 -20 7 -28q26 -29 108 -29q25 0 43 3 q58 11 98 51q5 5 7 22zM311 907q1 13 43 11q32 -2 47 -7q11 -5 14 -13q13 -40 26 -56q34 -38 52 -48q10 -4 10 -13q0 -7 -10 -14q-19 -11 -42 -2q-53 19 -96 63q-49 47 -44 79z" />
<glyph unicode="&#xc1;" horiz-adv-x="606" d="M616 73q2 22 -5 39q-3 9 -8 3q-22 -30 -55 -47q-32 -18 -55 -16q-27 3 -34 7q-13 7 -13 27t10 54q10 32 29.5 85t49.5 128l39 95l26 58q6 12 6 21q0 23 -31 27q-46 7 -61 -24l-78 -150q-34 -62 -59 -101q-133 -205 -215 -205q-13 0 -22 4q-39 13 -39 59q0 49 45 132 q18 33 36.5 60t37.5 49q181 204 334 220q40 4 40 17q0 5 -14 25q-17 23 -42 23q-80 0 -195 -61q-130 -69 -215 -174q-137 -169 -137 -305q0 -75 46 -106q36 -24 78 -24q76 0 165 81q63 57 101 121q4 6 7 6q7 0 2 -11q-37 -84 -37 -136q0 -20 7 -28q26 -29 108 -29q25 0 43 3 q58 11 98 51q5 5 7 22zM627 904q-2 14 -43 12q-29 -1 -47 -8q-11 -5 -14 -12q-14 -43 -27 -56q-35 -39 -51 -48q-10 -6 -10 -13q0 -8 10 -14q19 -11 42 -2q54 20 96 62q48 48 44 79z" />
<glyph unicode="&#xc2;" horiz-adv-x="606" d="M616 73q2 22 -5 39q-3 9 -8 3q-22 -30 -55 -47q-32 -18 -55 -16q-27 3 -34 7q-13 7 -13 27t10 54q10 32 29.5 85t49.5 128l39 95l26 58q6 12 6 21q0 23 -31 27q-46 7 -61 -24l-78 -150q-34 -62 -59 -101q-133 -205 -215 -205q-13 0 -22 4q-39 13 -39 59q0 49 45 132 q18 33 36.5 60t37.5 49q181 204 334 220q40 4 40 17q0 5 -14 25q-17 23 -42 23q-80 0 -195 -61q-130 -69 -215 -174q-137 -169 -137 -305q0 -75 46 -106q36 -24 78 -24q76 0 165 81q63 57 101 121q4 6 7 6q7 0 2 -11q-37 -84 -37 -136q0 -20 7 -28q26 -29 108 -29q25 0 43 3 q58 11 98 51q5 5 7 22zM630 771q0 4 -7 11q-47 58 -57 114h-80q-60 -70 -120 -113q-12 -8 -12 -10q0 -8 21 -8q58 0 144 72q69 -73 102 -73q9 0 9 7z" />
<glyph unicode="&#xc3;" horiz-adv-x="606" d="M616 73q2 22 -5 39q-3 9 -8 3q-22 -30 -55 -47q-32 -18 -55 -16q-27 3 -34 7q-13 7 -13 27t10 54q10 32 29.5 85t49.5 128l39 95l26 58q6 12 6 21q0 23 -31 27q-46 7 -61 -24l-78 -150q-34 -62 -59 -101q-133 -205 -215 -205q-13 0 -22 4q-39 13 -39 59q0 49 45 132 q18 33 36.5 60t37.5 49q181 204 334 220q40 4 40 17q0 5 -14 25q-17 23 -42 23q-80 0 -195 -61q-130 -69 -215 -174q-137 -169 -137 -305q0 -75 46 -106q36 -24 78 -24q76 0 165 81q63 57 101 121q4 6 7 6q7 0 2 -11q-37 -84 -37 -136q0 -20 7 -28q26 -29 108 -29q25 0 43 3 q58 11 98 51q5 5 7 22zM545 800q41 41 41 50q0 14 -15 14q-7 0 -19 -12q-24 -24 -40 -24q-13 0 -47 19q-52 28 -76 28q-26 0 -58 -38q-41 -50 -41 -55q0 -14 14 -14q8 0 35 27q14 14 24 14t48 -18q57 -26 74 -26q25 0 60 35z" />
<glyph unicode="&#xc4;" horiz-adv-x="606" d="M616 73q2 22 -5 39q-3 9 -8 3q-22 -30 -55 -47q-32 -18 -55 -16q-27 3 -34 7q-13 7 -13 27t10 54q10 32 29.5 85t49.5 128l39 95l26 58q6 12 6 21q0 23 -31 27q-46 7 -61 -24l-78 -150q-34 -62 -59 -101q-133 -205 -215 -205q-13 0 -22 4q-39 13 -39 59q0 49 45 132 q18 33 36.5 60t37.5 49q181 204 334 220q40 4 40 17q0 5 -14 25q-17 23 -42 23q-80 0 -195 -61q-130 -69 -215 -174q-137 -169 -137 -305q0 -75 46 -106q36 -24 78 -24q76 0 165 81q63 57 101 121q4 6 7 6q7 0 2 -11q-37 -84 -37 -136q0 -20 7 -28q26 -29 108 -29q25 0 43 3 q58 11 98 51q5 5 7 22zM533 800q8 14 8 33q0 34 -32 48q-9 3 -19 3q-40 0 -53 -27q-14 -26 -14 -47q0 -31 32 -45q9 -4 21 -4q33 0 57 39zM393 800q8 14 8 33q0 34 -32 48q-9 3 -19 3q-40 0 -53 -27q-14 -26 -14 -47q0 -31 32 -45q9 -4 21 -4q33 0 57 39z" />
<glyph unicode="&#xc5;" horiz-adv-x="606" d="M616 73q2 22 -5 39q-3 9 -8 3q-22 -30 -55 -47q-32 -18 -55 -16q-27 3 -34 7q-13 7 -13 27t10 54q10 32 29.5 85t49.5 128l39 95l26 58q6 12 6 21q0 23 -31 27q-46 7 -61 -24l-78 -150q-34 -62 -59 -101q-133 -205 -215 -205q-13 0 -22 4q-39 13 -39 59q0 49 45 132 q18 33 36.5 60t37.5 49q181 204 334 220q40 4 40 17q0 5 -14 25q-17 23 -42 23q-80 0 -195 -61q-130 -69 -215 -174q-137 -169 -137 -305q0 -75 46 -106q36 -24 78 -24q76 0 165 81q63 57 101 121q4 6 7 6q7 0 2 -11q-37 -84 -37 -136q0 -20 7 -28q26 -29 108 -29q25 0 43 3 q58 11 98 51q5 5 7 22zM541 838q0 30 -21.5 52t-51.5 22t-52 -22t-22 -52t22 -51.5t52 -21.5t51.5 21.5t21.5 51.5zM468 799q-16 0 -27.5 11.5t-11.5 27.5q0 17 11.5 28t27.5 11q17 0 28 -11t11 -28q0 -16 -11 -27.5t-28 -11.5z" />
<glyph unicode="&#xc6;" horiz-adv-x="971" d="M1042 609q-2 33 -39 51q-20 10 -58 10q-71 0 -136 -40q-87 -56 -148 -173q-28 -53 -28 -97q0 -36 19 -67q20 -32 20 -33q0 -5 -11 -13q-107 -72 -176 -194q-39 4 -39 33q0 20 10 54q10 32 29.5 85t49.5 128l39 95l26 58q6 12 6 21q0 23 -31 27q-46 7 -61 -24l-78 -150 q-34 -62 -59 -101q-133 -205 -215 -205q-13 0 -22 4q-39 13 -39 59q0 49 45 132q18 33 36.5 60t37.5 49q181 204 334 220q40 4 40 17q0 5 -14 25q-17 23 -42 23q-80 0 -195 -61q-130 -69 -215 -174q-137 -169 -137 -305q0 -75 46 -106q36 -24 78 -24q76 0 165 81 q63 57 101 121q4 6 7 6q7 0 2 -11q-37 -84 -37 -136q0 -20 7 -28q24 -27 98 -29q-21 -52 -21 -94q0 -90 96 -118q18 -5 37 -5q74 0 154 54q57 38 107 93q46 49 55 73q2 8 2 11q0 14 -20 31q-15 12 -25 12q-11 0 -20 -14q-24 -38 -88 -98q-86 -80 -130 -80t-44 54 q0 56 55 144q63 103 120 153q13 12 26 10q33 -7 55 -1q73 19 73 63t-57 44q-21 0 -41 -9l-39 -18q-10 -5 -15.5 0.5t-5.5 18.5q0 53 43 126q37 63 82 105q52 49 93 48q17 0 29 -4.5t20 -9.5t12.5 -9t5.5 -4q9 0 17.5 12t7.5 24z" />
<glyph unicode="&#xc7;" horiz-adv-x="512" d="M121 -219q128 8 263 197q10 13 10 28q0 13 -10.5 28t-22.5 15t-33 -35q-25 -43 -83 -90q-64 -52 -106 -52q-15 0 -25 7q-40 25 -40 91q0 59 24 134l18 49l31 80q23 57 58.5 116t84.5 122q105 133 164 133q38 0 38 -44q0 -31 -19 -70q-31 -67 -112 -93q-21 -6 -21 -21 q0 -8 9 -23q13 -23 36 -25q26 -1 78 37q60 43 87 99q22 44 22 91q0 52 -28 86t-79 34q-91 0 -189 -83q-147 -126 -257 -361q-65 -141 -65 -259q0 -122 76 -168q28 -17 57 -21l-33 -69q-3 -6 -3 -7q0 -6 5 -6q2 0 12 1.5t14 1.5q44 0 44 -35q0 -46 -56 -46q-49 0 -95 34 l-22 -35q55 -37 129 -37q47 0 82 20q40 24 40 67q0 29 -21 49.5t-59 20.5q-4 0 -12 -1t-12 -1z" />
<glyph unicode="&#xc8;" horiz-adv-x="445" d="M505 609q-2 33 -39 51q-20 10 -58 10q-71 0 -136 -40q-87 -56 -148 -173q-28 -53 -28 -97q0 -36 19 -67q20 -32 20 -33q0 -5 -11 -13q-44 -29 -92 -80q-69 -75 -105 -158q-26 -60 -26 -105q0 -91 96 -119q17 -5 36 -5q74 0 154 54q57 38 107 93q46 49 55 73q2 8 2 11 q0 14 -20 31q-15 12 -25 12q-11 0 -20 -14q-24 -38 -88 -98q-86 -80 -130 -80t-44 54q0 56 55 144q63 103 120 153q13 12 26 10q33 -7 55 -1q73 19 73 63t-57 44q-20 0 -40 -9l-40 -18q-10 -5 -15.5 0.5t-5.5 18.5q0 53 43 126q37 63 82 105q52 49 93 48q17 0 29 -4.5 t20 -9.5t12.5 -9t5.5 -4q9 0 17.5 12t7.5 24zM246 907q1 13 43 11q32 -2 47 -7q11 -5 14 -13q13 -40 26 -56q34 -38 52 -48q10 -4 10 -13q0 -7 -10 -14q-19 -11 -42 -2q-53 19 -96 63q-49 47 -44 79z" />
<glyph unicode="&#xc9;" horiz-adv-x="445" d="M505 609q-2 33 -39 51q-20 10 -58 10q-71 0 -136 -40q-87 -56 -148 -173q-28 -53 -28 -97q0 -36 19 -67q20 -32 20 -33q0 -5 -11 -13q-44 -29 -92 -80q-69 -75 -105 -158q-26 -60 -26 -105q0 -91 96 -119q17 -5 36 -5q74 0 154 54q57 38 107 93q46 49 55 73q2 8 2 11 q0 14 -20 31q-15 12 -25 12q-11 0 -20 -14q-24 -38 -88 -98q-86 -80 -130 -80t-44 54q0 56 55 144q63 103 120 153q13 12 26 10q33 -7 55 -1q73 19 73 63t-57 44q-20 0 -40 -9l-40 -18q-10 -5 -15.5 0.5t-5.5 18.5q0 53 43 126q37 63 82 105q52 49 93 48q17 0 29 -4.5 t20 -9.5t12.5 -9t5.5 -4q9 0 17.5 12t7.5 24zM600 904q-2 14 -43 12q-29 -1 -47 -8q-11 -5 -14 -12q-14 -43 -27 -56q-35 -39 -51 -48q-10 -6 -10 -13q0 -8 10 -14q19 -11 42 -2q54 20 96 62q48 48 44 79z" />
<glyph unicode="&#xca;" horiz-adv-x="445" d="M505 609q-2 33 -39 51q-20 10 -58 10q-71 0 -136 -40q-87 -56 -148 -173q-28 -53 -28 -97q0 -36 19 -67q20 -32 20 -33q0 -5 -11 -13q-44 -29 -92 -80q-69 -75 -105 -158q-26 -60 -26 -105q0 -91 96 -119q17 -5 36 -5q74 0 154 54q57 38 107 93q46 49 55 73q2 8 2 11 q0 14 -20 31q-15 12 -25 12q-11 0 -20 -14q-24 -38 -88 -98q-86 -80 -130 -80t-44 54q0 56 55 144q63 103 120 153q13 12 26 10q33 -7 55 -1q73 19 73 63t-57 44q-20 0 -40 -9l-40 -18q-10 -5 -15.5 0.5t-5.5 18.5q0 53 43 126q37 63 82 105q52 49 93 48q17 0 29 -4.5 t20 -9.5t12.5 -9t5.5 -4q9 0 17.5 12t7.5 24zM557 771q0 4 -7 11q-47 58 -57 114h-80q-60 -70 -120 -113q-12 -8 -12 -10q0 -8 21 -8q58 0 144 72q69 -73 102 -73q9 0 9 7z" />
<glyph unicode="&#xcb;" horiz-adv-x="445" d="M505 609q-2 33 -39 51q-20 10 -58 10q-71 0 -136 -40q-87 -56 -148 -173q-28 -53 -28 -97q0 -36 19 -67q20 -32 20 -33q0 -5 -11 -13q-44 -29 -92 -80q-69 -75 -105 -158q-26 -60 -26 -105q0 -91 96 -119q17 -5 36 -5q74 0 154 54q57 38 107 93q46 49 55 73q2 8 2 11 q0 14 -20 31q-15 12 -25 12q-11 0 -20 -14q-24 -38 -88 -98q-86 -80 -130 -80t-44 54q0 56 55 144q63 103 120 153q13 12 26 10q33 -7 55 -1q73 19 73 63t-57 44q-20 0 -40 -9l-40 -18q-10 -5 -15.5 0.5t-5.5 18.5q0 53 43 126q37 63 82 105q52 49 93 48q17 0 29 -4.5 t20 -9.5t12.5 -9t5.5 -4q9 0 17.5 12t7.5 24zM494 800q8 14 8 33q0 34 -32 48q-9 3 -19 3q-40 0 -53 -27q-14 -26 -14 -47q0 -31 32 -45q9 -4 21 -4q33 0 57 39zM354 800q8 14 8 33q0 34 -32 48q-9 3 -19 3q-40 0 -53 -27q-14 -26 -14 -47q0 -31 32 -45q9 -4 21 -4 q33 0 57 39z" />
<glyph unicode="&#xcc;" horiz-adv-x="449" d="M418 406q26 118 26 177q0 96 -59 113q-12 4 -29 4q-64 0 -136 -69q-66 -63 -108 -154q-30 -65 -30 -145q0 -74 27 -126q30 -59 87 -79q17 -5 5 -17q-33 -33 -51 -45q-31 -20 -63 -20q-55 0 -75 44q-5 9 -13 9q-28 0 -28 -48q0 -34 22 -56q28 -31 89 -35q118 -9 195 86 q83 102 141 361zM340 591q-2 -62 -36 -195q-17 -67 -32.5 -116t-29.5 -81q-6 -14 -12 -14q-5 0 -16 7q-39 22 -39 111q0 65 25 130q20 52 48 103q43 81 75 81q19 0 17 -26zM196 907q1 13 43 11q32 -2 47 -7q11 -5 14 -13q13 -40 26 -56q34 -38 52 -48q10 -4 10 -13 q0 -7 -10 -14q-19 -11 -42 -2q-53 19 -96 63q-49 47 -44 79z" />
<glyph unicode="&#xcd;" horiz-adv-x="449" d="M418 406q26 118 26 177q0 96 -59 113q-12 4 -29 4q-64 0 -136 -69q-66 -63 -108 -154q-30 -65 -30 -145q0 -74 27 -126q30 -59 87 -79q17 -5 5 -17q-33 -33 -51 -45q-31 -20 -63 -20q-55 0 -75 44q-5 9 -13 9q-28 0 -28 -48q0 -34 22 -56q28 -31 89 -35q118 -9 195 86 q83 102 141 361zM340 591q-2 -62 -36 -195q-17 -67 -32.5 -116t-29.5 -81q-6 -14 -12 -14q-5 0 -16 7q-39 22 -39 111q0 65 25 130q20 52 48 103q43 81 75 81q19 0 17 -26zM565 904q-2 14 -43 12q-29 -1 -47 -8q-11 -5 -14 -12q-14 -43 -27 -56q-35 -39 -51 -48 q-10 -6 -10 -13q0 -8 10 -14q19 -11 42 -2q54 20 96 62q48 48 44 79z" />
<glyph unicode="&#xce;" horiz-adv-x="449" d="M418 406q26 118 26 177q0 96 -59 113q-12 4 -29 4q-64 0 -136 -69q-66 -63 -108 -154q-30 -65 -30 -145q0 -74 27 -126q30 -59 87 -79q17 -5 5 -17q-33 -33 -51 -45q-31 -20 -63 -20q-55 0 -75 44q-5 9 -13 9q-28 0 -28 -48q0 -34 22 -56q28 -31 89 -35q118 -9 195 86 q83 102 141 361zM340 591q-2 -62 -36 -195q-17 -67 -32.5 -116t-29.5 -81q-6 -14 -12 -14q-5 0 -16 7q-39 22 -39 111q0 65 25 130q20 52 48 103q43 81 75 81q19 0 17 -26zM527 771q0 4 -7 11q-47 58 -57 114h-80q-60 -70 -120 -113q-12 -8 -12 -10q0 -8 21 -8q58 0 144 72 q69 -73 102 -73q9 0 9 7z" />
<glyph unicode="&#xcf;" horiz-adv-x="449" d="M418 406q26 118 26 177q0 96 -59 113q-12 4 -29 4q-64 0 -136 -69q-66 -63 -108 -154q-30 -65 -30 -145q0 -74 27 -126q30 -59 87 -79q17 -5 5 -17q-33 -33 -51 -45q-31 -20 -63 -20q-55 0 -75 44q-5 9 -13 9q-28 0 -28 -48q0 -34 22 -56q28 -31 89 -35q118 -9 195 86 q83 102 141 361zM340 591q-2 -62 -36 -195q-17 -67 -32.5 -116t-29.5 -81q-6 -14 -12 -14q-5 0 -16 7q-39 22 -39 111q0 65 25 130q20 52 48 103q43 81 75 81q19 0 17 -26zM480 800q8 14 8 33q0 34 -32 48q-9 3 -19 3q-40 0 -53 -27q-14 -26 -14 -47q0 -31 32 -45 q9 -4 21 -4q33 0 57 39zM340 800q8 14 8 33q0 34 -32 48q-9 3 -19 3q-40 0 -53 -27q-14 -26 -14 -47q0 -31 32 -45q9 -4 21 -4q33 0 57 39z" />
<glyph unicode="&#xd0;" horiz-adv-x="796" d="M270 258q-9 0 -15 -11q-35 -62 -35 -71q0 -4 20 -4h89q-44 -72 -64 -72q-26 0 -77 9t-77 9q-105 0 -105 -61q0 -58 142 -58q20 0 59 6q20 4 34 5.5t24 1.5q17 0 56 -6t55 -6h132q112 0 173 64q56 59 56 158q0 74 -37 144q-24 46 -68 95q-37 40 -37 44q0 6 16 28t16 29 q0 4 -30 27q-29 24 -34 24q-4 0 -18 -17q-20 -26 -23 -29q-172 131 -282 131q-108 0 -108 -103q0 -52 43 -110q34 -47 84 -87q46 -35 60 -35q15 0 29 29q13 25 13 40q0 3 -18 17l-25 18q-10 8 -18 15q-72 64 -72 103q0 25 29 25q31 0 122 -55q92 -54 92 -76q0 -13 -29 -82 l-32 -70q-16 -35 -34 -69h-106zM480 258q45 97 69 153l39 -53q16 -22 23 -35q30 -53 30 -102q0 -135 -187 -135q-7 0 -24.5 1t-45.5 3l27 37q14 20 28 45h106q9 0 15 11q35 62 35 71q0 4 -20 4h-95z" />
<glyph unicode="&#xd1;" horiz-adv-x="770" d="M780 73q2 22 -5 39q-3 9 -8 3q-10 -14 -24 -25.5t-31 -21.5q-30 -18 -49 -18q-29 0 -51 13q-25 16 -25 45q0 13 4 25q2 7 19 56l49 142l43 131l21 66q6 25 6 47q0 63 -54 80q-10 2 -19 3.5t-19 1.5q-81 0 -165 -94q-32 -37 -62.5 -83.5t-58.5 -103.5q-5 -11 -12 -11 q-4 0 -4 6q0 2 2 10q28 84 28 145q0 99 -77 125q-29 9 -55 9q-86 0 -161 -99q-52 -68 -52 -153q0 -57 34 -92q16 -18 39 -18q31 0 31 24q0 3 -2 10q-4 7 -6 15l-4 18q-2 9 -3 17q0 59 38 137q25 52 76 52q60 0 60 -73q0 -44 -21 -107q-28 -83 -87 -224l-41 -95 q-16 -38 -26 -57q-4 -7 -4 -12q0 -12 38 -14q62 -2 87 50q29 61 65.5 127t81.5 139q114 189 179 245q24 21 42 21q29 0 29 -33q0 -4 -2 -10q-63 -153 -97 -249.5t-40 -139.5q-3 -23 -3 -39q0 -57 45 -82q44 -25 100 -25q11 0 23 1t23 3q56 9 98 51q5 5 7 22zM586 800 q41 41 41 50q0 14 -15 14q-7 0 -19 -12q-24 -24 -40 -24q-13 0 -47 19q-52 28 -76 28q-26 0 -58 -38q-41 -50 -41 -55q0 -14 14 -14q8 0 35 27q14 14 24 14t48 -18q57 -26 74 -26q25 0 60 35z" />
<glyph unicode="&#xd2;" horiz-adv-x="517" d="M587 563q-23 44 -36 44q-6 0 -15 -9l-30 -30q-6 -6 -10 -6q-7 0 -9 14q-2 11 -7 23.5t-13 25.5q-20 32 -48 44q-41 18 -63 18q-27 0 -61 -15q-8 -3 -19 -3q-81 -2 -156 -87q-63 -73 -107 -189q-32 -90 -32 -184q0 -170 102 -210q30 -13 66 -13q78 0 157 65q74 62 124 165 q40 82 57 151q3 12 12 72q3 18 9 22q25 20 42.5 37t28.5 31q16 20 8 34zM412 496q-2 -20 -40 -20q-20 0 -36.5 6.5t-28 17.5t-18 25t-6.5 29q0 28 26 51q13 12 34 12q15 0 28.5 -7.5t23 -19.5t15 -27t5.5 -30q0 -3 -3 -37zM387 380q-11 -54 -61 -147q-84 -158 -157 -158 q-10 0 -20 3q-64 21 -64 117q0 79 40 187q37 102 83 156q7 10 13 10q5 0 4 -19q-8 -60 41 -104q36 -33 78 -33q7 0 16 2l22 3q3 1 5 -4t0 -13zM260 907q1 13 43 11q32 -2 47 -7q11 -5 14 -13q13 -40 26 -56q34 -38 52 -48q10 -4 10 -13q0 -7 -10 -14q-19 -11 -42 -2 q-53 19 -96 63q-49 47 -44 79z" />
<glyph unicode="&#xd3;" horiz-adv-x="517" d="M587 563q-23 44 -36 44q-6 0 -15 -9l-30 -30q-6 -6 -10 -6q-7 0 -9 14q-2 11 -7 23.5t-13 25.5q-20 32 -48 44q-41 18 -63 18q-27 0 -61 -15q-8 -3 -19 -3q-81 -2 -156 -87q-63 -73 -107 -189q-32 -90 -32 -184q0 -170 102 -210q30 -13 66 -13q78 0 157 65q74 62 124 165 q40 82 57 151q3 12 12 72q3 18 9 22q25 20 42.5 37t28.5 31q16 20 8 34zM412 496q-2 -20 -40 -20q-20 0 -36.5 6.5t-28 17.5t-18 25t-6.5 29q0 28 26 51q13 12 34 12q15 0 28.5 -7.5t23 -19.5t15 -27t5.5 -30q0 -3 -3 -37zM387 380q-11 -54 -61 -147q-84 -158 -157 -158 q-10 0 -20 3q-64 21 -64 117q0 79 40 187q37 102 83 156q7 10 13 10q5 0 4 -19q-8 -60 41 -104q36 -33 78 -33q7 0 16 2l22 3q3 1 5 -4t0 -13zM588 904q-2 14 -43 12q-29 -1 -47 -8q-11 -5 -14 -12q-14 -43 -27 -56q-35 -39 -51 -48q-10 -6 -10 -13q0 -8 10 -14 q19 -11 42 -2q54 20 96 62q48 48 44 79z" />
<glyph unicode="&#xd4;" horiz-adv-x="517" d="M587 563q-23 44 -36 44q-6 0 -15 -9l-30 -30q-6 -6 -10 -6q-7 0 -9 14q-2 11 -7 23.5t-13 25.5q-20 32 -48 44q-41 18 -63 18q-27 0 -61 -15q-8 -3 -19 -3q-81 -2 -156 -87q-63 -73 -107 -189q-32 -90 -32 -184q0 -170 102 -210q30 -13 66 -13q78 0 157 65q74 62 124 165 q40 82 57 151q3 12 12 72q3 18 9 22q25 20 42.5 37t28.5 31q16 20 8 34zM412 496q-2 -20 -40 -20q-20 0 -36.5 6.5t-28 17.5t-18 25t-6.5 29q0 28 26 51q13 12 34 12q15 0 28.5 -7.5t23 -19.5t15 -27t5.5 -30q0 -3 -3 -37zM387 380q-11 -54 -61 -147q-84 -158 -157 -158 q-10 0 -20 3q-64 21 -64 117q0 79 40 187q37 102 83 156q7 10 13 10q5 0 4 -19q-8 -60 41 -104q36 -33 78 -33q7 0 16 2l22 3q3 1 5 -4t0 -13zM562 771q0 4 -7 11q-47 58 -57 114h-80q-60 -70 -120 -113q-12 -8 -12 -10q0 -8 21 -8q58 0 144 72q69 -73 102 -73q9 0 9 7z" />
<glyph unicode="&#xd5;" horiz-adv-x="517" d="M587 563q-23 44 -36 44q-6 0 -15 -9l-30 -30q-6 -6 -10 -6q-7 0 -9 14q-2 11 -7 23.5t-13 25.5q-20 32 -48 44q-41 18 -63 18q-27 0 -61 -15q-8 -3 -19 -3q-81 -2 -156 -87q-63 -73 -107 -189q-32 -90 -32 -184q0 -170 102 -210q30 -13 66 -13q78 0 157 65q74 62 124 165 q40 82 57 151q3 12 12 72q3 18 9 22q25 20 42.5 37t28.5 31q16 20 8 34zM412 496q-2 -20 -40 -20q-20 0 -36.5 6.5t-28 17.5t-18 25t-6.5 29q0 28 26 51q13 12 34 12q15 0 28.5 -7.5t23 -19.5t15 -27t5.5 -30q0 -3 -3 -37zM387 380q-11 -54 -61 -147q-84 -158 -157 -158 q-10 0 -20 3q-64 21 -64 117q0 79 40 187q37 102 83 156q7 10 13 10q5 0 4 -19q-8 -60 41 -104q36 -33 78 -33q7 0 16 2l22 3q3 1 5 -4t0 -13zM513 800q41 41 41 50q0 14 -15 14q-7 0 -19 -12q-24 -24 -40 -24q-13 0 -47 19q-52 28 -76 28q-26 0 -58 -38q-41 -50 -41 -55 q0 -14 14 -14q8 0 35 27q14 14 24 14t48 -18q57 -26 74 -26q25 0 60 35z" />
<glyph unicode="&#xd6;" horiz-adv-x="517" d="M587 563q-23 44 -36 44q-6 0 -15 -9l-30 -30q-6 -6 -10 -6q-7 0 -9 14q-2 11 -7 23.5t-13 25.5q-20 32 -48 44q-41 18 -63 18q-27 0 -61 -15q-8 -3 -19 -3q-81 -2 -156 -87q-63 -73 -107 -189q-32 -90 -32 -184q0 -170 102 -210q30 -13 66 -13q78 0 157 65q74 62 124 165 q40 82 57 151q3 12 12 72q3 18 9 22q25 20 42.5 37t28.5 31q16 20 8 34zM412 496q-2 -20 -40 -20q-20 0 -36.5 6.5t-28 17.5t-18 25t-6.5 29q0 28 26 51q13 12 34 12q15 0 28.5 -7.5t23 -19.5t15 -27t5.5 -30q0 -3 -3 -37zM387 380q-11 -54 -61 -147q-84 -158 -157 -158 q-10 0 -20 3q-64 21 -64 117q0 79 40 187q37 102 83 156q7 10 13 10q5 0 4 -19q-8 -60 41 -104q36 -33 78 -33q7 0 16 2l22 3q3 1 5 -4t0 -13zM528 800q8 14 8 33q0 34 -32 48q-9 3 -19 3q-40 0 -53 -27q-14 -26 -14 -47q0 -31 32 -45q9 -4 21 -4q33 0 57 39zM388 800 q8 14 8 33q0 34 -32 48q-9 3 -19 3q-40 0 -53 -27q-14 -26 -14 -47q0 -31 32 -45q9 -4 21 -4q33 0 57 39z" />
<glyph unicode="&#xd7;" d="M259 178l-137 -137l41 -41l137 137l138 -137l40 42l-137 136l137 136l-40 42l-138 -139l-137 139l-41 -40z" />
<glyph unicode="&#xd8;" horiz-adv-x="593" d="M388 440q31 60 69 60q33 0 33 -45q0 -55 -40 -141q-44 -92 -103 -153q-71 -74 -139 -75zM144 102q-39 25 -39 88q0 127 87 255q88 132 213 171zM598 852h-73l-66 -130q-177 -17 -316 -188q-134 -166 -134 -342q0 -133 91 -176l-68 -132h72l58 114q16 -3 36 -3 q103 0 198 81q84 72 138 185q52 105 52 198q0 58 -28.5 93.5t-79.5 35.5q-11 0 -14 -1l21 42l35 -3q49 -4 49 47q0 21 -8 30t-31 15z" />
<glyph unicode="&#xd9;" horiz-adv-x="803" d="M813 73q2 22 -5 39q-3 9 -8 3q-10 -14 -24 -25.5t-32 -21.5q-32 -18 -50 -18q-70 0 -70 51q0 8 1 13l69 264l64 234q4 12 4 21q0 23 -36 29q-17 3 -27 3q-31 0 -41 -24l-82 -171q-35 -72 -59 -115q-106 -190 -192 -250q-35 -23 -51 -23t-16 17q0 13 7 30q109 292 123 342 q8 30 8 56q0 115 -130 128q-6 1 -12 1h-11q-71 0 -129 -42q-56 -38 -75 -90q-19 -51 -19 -95q0 -40 17 -62t44 -22q38 0 38 23q0 6 -5 24t-5 30q0 33 12 59q18 39 50 64.5t64 25.5q14 0 23 -4q29 -12 29 -50q0 -21 -7 -42l-19 -49l-49 -129l-50 -129q-18 -50 -24 -74 q-5 -20 -5 -34q0 -48 55 -67q16 -6 33 -6q38 0 105 34q118 62 230 259q7 15 11 15q3 0 -4 -18q-11 -26 -24 -84q-16 -62 -19 -100q-5 -44 23 -70q32 -29 99 -29q30 0 66 6q54 7 98 51q5 5 7 22zM377 907q1 13 43 11q32 -2 47 -7q11 -5 14 -13q13 -40 26 -56q34 -38 52 -48 q10 -4 10 -13q0 -7 -10 -14q-19 -11 -42 -2q-53 19 -96 63q-49 47 -44 79z" />
<glyph unicode="&#xda;" horiz-adv-x="803" d="M813 73q2 22 -5 39q-3 9 -8 3q-10 -14 -24 -25.5t-32 -21.5q-32 -18 -50 -18q-70 0 -70 51q0 8 1 13l69 264l64 234q4 12 4 21q0 23 -36 29q-17 3 -27 3q-31 0 -41 -24l-82 -171q-35 -72 -59 -115q-106 -190 -192 -250q-35 -23 -51 -23t-16 17q0 13 7 30q109 292 123 342 q8 30 8 56q0 115 -130 128q-6 1 -12 1h-11q-71 0 -129 -42q-56 -38 -75 -90q-19 -51 -19 -95q0 -40 17 -62t44 -22q38 0 38 23q0 6 -5 24t-5 30q0 33 12 59q18 39 50 64.5t64 25.5q14 0 23 -4q29 -12 29 -50q0 -21 -7 -42l-19 -49l-49 -129l-50 -129q-18 -50 -24 -74 q-5 -20 -5 -34q0 -48 55 -67q16 -6 33 -6q38 0 105 34q118 62 230 259q7 15 11 15q3 0 -4 -18q-11 -26 -24 -84q-16 -62 -19 -100q-5 -44 23 -70q32 -29 99 -29q30 0 66 6q54 7 98 51q5 5 7 22zM686 904q-2 14 -43 12q-29 -1 -47 -8q-11 -5 -14 -12q-14 -43 -27 -56 q-35 -39 -51 -48q-10 -6 -10 -13q0 -8 10 -14q19 -11 42 -2q54 20 96 62q48 48 44 79z" />
<glyph unicode="&#xdb;" horiz-adv-x="803" d="M813 73q2 22 -5 39q-3 9 -8 3q-10 -14 -24 -25.5t-32 -21.5q-32 -18 -50 -18q-70 0 -70 51q0 8 1 13l69 264l64 234q4 12 4 21q0 23 -36 29q-17 3 -27 3q-31 0 -41 -24l-82 -171q-35 -72 -59 -115q-106 -190 -192 -250q-35 -23 -51 -23t-16 17q0 13 7 30q109 292 123 342 q8 30 8 56q0 115 -130 128q-6 1 -12 1h-11q-71 0 -129 -42q-56 -38 -75 -90q-19 -51 -19 -95q0 -40 17 -62t44 -22q38 0 38 23q0 6 -5 24t-5 30q0 33 12 59q18 39 50 64.5t64 25.5q14 0 23 -4q29 -12 29 -50q0 -21 -7 -42l-19 -49l-49 -129l-50 -129q-18 -50 -24 -74 q-5 -20 -5 -34q0 -48 55 -67q16 -6 33 -6q38 0 105 34q118 62 230 259q7 15 11 15q3 0 -4 -18q-11 -26 -24 -84q-16 -62 -19 -100q-5 -44 23 -70q32 -29 99 -29q30 0 66 6q54 7 98 51q5 5 7 22zM654 771q0 4 -7 11q-47 58 -57 114h-80q-60 -70 -120 -113q-12 -8 -12 -10 q0 -8 21 -8q58 0 144 72q69 -73 102 -73q9 0 9 7z" />
<glyph unicode="&#xdc;" horiz-adv-x="803" d="M813 73q2 22 -5 39q-3 9 -8 3q-10 -14 -24 -25.5t-32 -21.5q-32 -18 -50 -18q-70 0 -70 51q0 8 1 13l69 264l64 234q4 12 4 21q0 23 -36 29q-17 3 -27 3q-31 0 -41 -24l-82 -171q-35 -72 -59 -115q-106 -190 -192 -250q-35 -23 -51 -23t-16 17q0 13 7 30q109 292 123 342 q8 30 8 56q0 115 -130 128q-6 1 -12 1h-11q-71 0 -129 -42q-56 -38 -75 -90q-19 -51 -19 -95q0 -40 17 -62t44 -22q38 0 38 23q0 6 -5 24t-5 30q0 33 12 59q18 39 50 64.5t64 25.5q14 0 23 -4q29 -12 29 -50q0 -21 -7 -42l-19 -49l-49 -129l-50 -129q-18 -50 -24 -74 q-5 -20 -5 -34q0 -48 55 -67q16 -6 33 -6q38 0 105 34q118 62 230 259q7 15 11 15q3 0 -4 -18q-11 -26 -24 -84q-16 -62 -19 -100q-5 -44 23 -70q32 -29 99 -29q30 0 66 6q54 7 98 51q5 5 7 22zM668 800q8 14 8 33q0 34 -32 48q-9 3 -19 3q-40 0 -53 -27q-14 -26 -14 -47 q0 -31 32 -45q9 -4 21 -4q33 0 57 39zM528 800q8 14 8 33q0 34 -32 48q-9 3 -19 3q-40 0 -53 -27q-14 -26 -14 -47q0 -31 32 -45q9 -4 21 -4q33 0 57 39z" />
<glyph unicode="&#xdd;" horiz-adv-x="821" d="M831 73q2 22 -5 39q-3 9 -8 3q-10 -14 -24 -25.5t-31 -21.5q-30 -18 -49 -18q-13 0 -25.5 -0.5t-24.5 -1.5q-29 -3 -36 -3q-9 0 -10 6q-1 3 4 19q10 26 32 97l58 187q66 216 75 249q3 10 3 19q0 22 -41 30q-10 2 -18 3t-13 1q-24 0 -31 -21q-36 -112 -146 -293 q-115 -187 -186 -238q-44 -33 -75 -25q-12 3 -12 19q0 12 8 31q100 235 117 354q1 8 1.5 17t0.5 17q0 130 -131 138q-152 8 -225 -151q-19 -39 -19 -82q0 -40 18 -73q15 -28 35 -39q12 -6 23 -6q30 0 30 21q0 8 -8 14q-12 10 -12 38q0 34 17 79q47 122 118 122q5 0 10 -0.5 t10 -1.5q40 -7 40 -61q0 -17 -4 -29q-2 -8 -69 -187q-65 -173 -72 -208q-1 -6 -1.5 -12t-0.5 -11q0 -36 22.5 -55t58.5 -19q60 0 122 39q55 36 124 116q28 33 51 64.5t41 62.5l6 8q3 1 3 -1t-0.5 -5t-1.5 -8q-9 -33 -45 -126l-33 -80q-14 -34 -25 -58q-11 -22 -24 -26 q-31 -11 -91 -62q-69 -60 -69 -99q0 -18 13 -28q24 -21 56 -21q57 0 127 68q60 60 78 114q6 16 24 24q17 9 42.5 12t54 6t56 9.5t49.5 21.5q8 5 15.5 11.5t15.5 14.5q5 5 7 22zM690 904q-2 14 -43 12q-29 -1 -47 -8q-11 -5 -14 -12q-14 -43 -27 -56q-35 -39 -51 -48 q-10 -6 -10 -13q0 -8 10 -14q19 -11 42 -2q54 20 96 62q48 48 44 79z" />
<glyph unicode="&#xde;" horiz-adv-x="815" d="M214 169q-94 -97 -195 -97q-49 0 -49 27q0 26 64 45q28 8 60.5 14t70.5 8zM11 -7q198 0 327 181q112 2 202.5 18.5t160.5 45.5q149 65 149 172q0 67 -81 114q-77 44 -179 44q-28 0 -43 -12.5t-15 -27.5q0 -40 58 -40q57 0 102 -19q56 -23 56 -59q0 -64 -122 -108 q-104 -36 -215 -36q-7 0 -13 2q20 38 40 84.5t40 101.5q43 120 43 176q0 68 -31 68t-51 -38q-4 -8 -9 -24.5t-11 -41.5q-58 -236 -136 -332q-403 0 -403 -169q0 -100 131 -100z" />
<glyph unicode="&#xdf;" horiz-adv-x="467" d="M94 156q16 58 48 162q4 -12 15 -12q4 0 15 6.5t22 6.5q14 0 28 -9q27 -20 27 -47q0 -12 -5 -27q-12 -34 -64 -59q-43 -21 -70 -19q-8 1 -16 -2zM474 74q2 22 -5 39q-3 9 -8 3q-44 -60 -107 -64q-60 -5 -80 1q-5 2 -7 5q-14 19 -16 22q-5 5 -10 9t-10 9q-14 14 -3 17 q35 9 67 36q45 38 49 93q1 6 1 13v15q0 105 -102 128q-14 3 -23 3q-35 0 -59 -21l3 8q10 28 21 42q75 100 75 163q0 24 -12.5 42.5t-35.5 20.5q-63 5 -112 -119q-4 -11 -17 -55l-36 -122q-46 -162 -54 -242q-1 -7 -3.5 -19t-7.5 -29q-10 -33 -10 -49q0 -17 22 -20 q3 -1 34 -1h20q1 1 3.5 4t6.5 10l7 23q3 10 6 17q3 16 6 28.5t5 22.5q23 -7 35.5 -10.5t14.5 -4.5q25 -10 43 -30q9 -11 9 -15t-10 -7q-29 -9 -48 -15.5t-27 -10.5q-61 -28 -86 -79q-18 -39 -18 -69q0 -50 52 -80q27 -15 65 -15q78 0 133 67q52 64 48 144q0 7 -1 10v1 q0 3 5 3q103 -11 170 56q5 5 7 22zM194 -26q-1 -12 -2.5 -24t-4.5 -23q-7 -30 -32 -56q-26 -29 -55 -29q-37 0 -37 36q0 25 22 51q37 46 82 54q19 4 24 1q3 -2 3 -10z" />
<glyph unicode="&#xe0;" horiz-adv-x="507" d="M517 73q2 22 -5 39q-3 9 -8 3q-10 -14 -24 -25.5t-31 -21.5q-30 -18 -49 -18q-51 0 -67 16q-7 7 -7 20q0 14 7 35t17.5 49.5t26.5 65.5l56 124q7 19 -3 30q-7 6 -35 11q-28 6 -38 3q-8 -3 -16 -11q-5 -5 -12 -16q-6 -11 -22 -2q-34 18 -75 17q-55 -1 -109 -31 q-72 -40 -112 -117q-40 -76 -40 -141q0 -50 28 -81q27 -33 76 -33q51 0 107 50q39 35 54 65q2 4 5.5 7t5.5 2q1 -2 0 -6q-8 -30 -8 -44q0 -30 25.5 -48.5t95.5 -18.5q14 0 27 1t25 3q56 9 98 51q5 5 7 22zM293 294q-47 -101 -93 -157l-28 -33q-10 -12 -15 -17 q-26 -26 -45 -26q-36 0 -36 47q0 49 45 120q25 38 66 65q43 27 73 25q34 -1 34 -18q0 -4 -1 -6zM101 680q1 13 43 11q32 -2 47 -7q11 -5 14 -13q13 -40 26 -56q34 -38 52 -48q10 -4 10 -13q0 -7 -10 -14q-19 -11 -42 -2q-53 19 -96 63q-49 47 -44 79z" />
<glyph unicode="&#xe1;" horiz-adv-x="507" d="M517 73q2 22 -5 39q-3 9 -8 3q-10 -14 -24 -25.5t-31 -21.5q-30 -18 -49 -18q-51 0 -67 16q-7 7 -7 20q0 14 7 35t17.5 49.5t26.5 65.5l56 124q7 19 -3 30q-7 6 -35 11q-28 6 -38 3q-8 -3 -16 -11q-5 -5 -12 -16q-6 -11 -22 -2q-34 18 -75 17q-55 -1 -109 -31 q-72 -40 -112 -117q-40 -76 -40 -141q0 -50 28 -81q27 -33 76 -33q51 0 107 50q39 35 54 65q2 4 5.5 7t5.5 2q1 -2 0 -6q-8 -30 -8 -44q0 -30 25.5 -48.5t95.5 -18.5q14 0 27 1t25 3q56 9 98 51q5 5 7 22zM293 294q-47 -101 -93 -157l-28 -33q-10 -12 -15 -17 q-26 -26 -45 -26q-36 0 -36 47q0 49 45 120q25 38 66 65q43 27 73 25q34 -1 34 -18q0 -4 -1 -6zM432 680q-1 13 -43 11q-32 -2 -47 -7q-11 -5 -14 -13q-13 -40 -26 -56q-34 -38 -52 -48q-10 -4 -10 -13q0 -7 10 -14q19 -11 42 -2q52 19 96 63q49 47 44 79z" />
<glyph unicode="&#xe2;" horiz-adv-x="507" d="M517 73q2 22 -5 39q-3 9 -8 3q-10 -14 -24 -25.5t-31 -21.5q-30 -18 -49 -18q-51 0 -67 16q-7 7 -7 20q0 14 7 35t17.5 49.5t26.5 65.5l56 124q7 19 -3 30q-7 6 -35 11q-28 6 -38 3q-8 -3 -16 -11q-5 -5 -12 -16q-6 -11 -22 -2q-34 18 -75 17q-55 -1 -109 -31 q-72 -40 -112 -117q-40 -76 -40 -141q0 -50 28 -81q27 -33 76 -33q51 0 107 50q39 35 54 65q2 4 5.5 7t5.5 2q1 -2 0 -6q-8 -30 -8 -44q0 -30 25.5 -48.5t95.5 -18.5q14 0 27 1t25 3q56 9 98 51q5 5 7 22zM293 294q-47 -101 -93 -157l-28 -33q-10 -12 -15 -17 q-26 -26 -45 -26q-36 0 -36 47q0 49 45 120q25 38 66 65q43 27 73 25q34 -1 34 -18q0 -4 -1 -6zM395 543q0 3 -7 10q-47 58 -57 114h-80q-60 -70 -120 -113q-12 -8 -12 -10q0 -8 21 -8q57 0 143 72q70 -73 103 -73q9 0 9 8z" />
<glyph unicode="&#xe3;" horiz-adv-x="507" d="M517 73q2 22 -5 39q-3 9 -8 3q-10 -14 -24 -25.5t-31 -21.5q-30 -18 -49 -18q-51 0 -67 16q-7 7 -7 20q0 14 7 35t17.5 49.5t26.5 65.5l56 124q7 19 -3 30q-7 6 -35 11q-28 6 -38 3q-8 -3 -16 -11q-5 -5 -12 -16q-6 -11 -22 -2q-34 18 -75 17q-55 -1 -109 -31 q-72 -40 -112 -117q-40 -76 -40 -141q0 -50 28 -81q27 -33 76 -33q51 0 107 50q39 35 54 65q2 4 5.5 7t5.5 2q1 -2 0 -6q-8 -30 -8 -44q0 -30 25.5 -48.5t95.5 -18.5q14 0 27 1t25 3q56 9 98 51q5 5 7 22zM293 294q-47 -101 -93 -157l-28 -33q-10 -12 -15 -17 q-26 -26 -45 -26q-36 0 -36 47q0 49 45 120q25 38 66 65q43 27 73 25q34 -1 34 -18q0 -4 -1 -6zM395 570q41 41 41 51q0 14 -15 14q-7 0 -19 -12q-24 -24 -40 -24q-13 0 -47 18q-53 29 -76 29q-27 0 -58 -39q-41 -49 -41 -54q0 -14 14 -14q7 0 35 26q14 14 24 14q9 0 48 -17 q55 -27 74 -27q25 0 60 35z" />
<glyph unicode="&#xe4;" horiz-adv-x="507" d="M517 73q2 22 -5 39q-3 9 -8 3q-10 -14 -24 -25.5t-31 -21.5q-30 -18 -49 -18q-51 0 -67 16q-7 7 -7 20q0 14 7 35t17.5 49.5t26.5 65.5l56 124q7 19 -3 30q-7 6 -35 11q-28 6 -38 3q-9 -3 -17 -11q-3 -3 -11 -16q-6 -11 -22 -2q-34 18 -75 17q-55 -1 -109 -31 q-72 -40 -112 -117q-40 -76 -40 -141q0 -50 28 -81q27 -33 76 -33q51 0 107 50q39 35 54 65q2 4 5.5 7t5.5 2q1 -2 0 -6q-8 -30 -8 -44q0 -30 25.5 -48.5t95.5 -18.5q14 0 27 1t25 3q56 9 98 51q5 5 7 22zM293 294q-47 -101 -93 -157l-28 -33q-10 -12 -15 -17 q-26 -26 -45 -26q-36 0 -36 47q0 49 45 120q25 38 66 65q43 27 73 25q34 -1 34 -18q0 -4 -1 -6zM387 579q8 14 8 33q0 34 -32 48q-9 3 -19 3q-40 0 -53 -27q-14 -26 -14 -47q0 -31 32 -45q9 -4 21 -4q33 0 57 39zM247 579q8 14 8 33q0 34 -32 48q-9 3 -19 3q-40 0 -53 -27 q-14 -26 -14 -47q0 -31 32 -45q9 -4 21 -4q33 0 57 39z" />
<glyph unicode="&#xe5;" horiz-adv-x="507" d="M517 73q2 22 -5 39q-3 9 -8 3q-10 -14 -24 -25.5t-31 -21.5q-30 -18 -49 -18q-51 0 -67 16q-7 7 -7 20q0 14 7 35t17.5 49.5t26.5 65.5l56 124q7 19 -3 30q-7 6 -35 11q-28 6 -38 3q-8 -3 -16 -11q-5 -5 -12 -16q-6 -11 -22 -2q-34 18 -75 17q-55 -1 -109 -31 q-72 -40 -112 -117q-40 -76 -40 -141q0 -50 28 -81q27 -33 76 -33q51 0 107 50q39 35 54 65q2 4 5.5 7t5.5 2q1 -2 0 -6q-8 -30 -8 -44q0 -30 25.5 -48.5t95.5 -18.5q14 0 27 1t25 3q56 9 98 51q5 5 7 22zM293 294q-47 -101 -93 -157l-28 -33q-10 -12 -15 -17 q-26 -26 -45 -26q-36 0 -36 47q0 49 45 120q25 38 66 65q43 27 73 25q34 -1 34 -18q0 -4 -1 -6zM347 610q0 30 -21.5 52t-51.5 22t-52 -22t-22 -52t22 -51.5t52 -21.5t51.5 21.5t21.5 51.5zM274 571q-16 0 -27.5 11.5t-11.5 27.5q0 17 11.5 28t27.5 11q17 0 28 -11t11 -28 q0 -16 -11 -27.5t-28 -11.5z" />
<glyph unicode="&#xe6;" horiz-adv-x="666" d="M294 301q0 -33 -73 -134q-76 -106 -109 -106q-36 0 -36 47q0 64 57 135q61 75 123 75q38 0 38 -17zM479 -9q62 0 118 15q79 24 79 71q0 40 -9 40q-1 0 -15 -14q-8 -8 -12 -12.5t-5 -5.5q-44 -36 -118 -36q-89 0 -110 28l39 37l40 36q79 82 79 155q0 48 -26.5 76t-72.5 28 q-56 0 -105 -34q-24 3 -27 -2l-9 -3q-10 0 -41 11q-30 11 -46 11q-106 0 -187 -91q-80 -91 -80 -198q0 -49 27.5 -81.5t76.5 -32.5q79 0 161 115q6 9 9 9q2 0 2 -1q0 -8 -4 -24t-4 -25q0 -47 52 -60q25 -6 90 -6q16 0 48 -3q33 -3 50 -3zM473 331q29 0 29 -34t-54 -101 q-52 -67 -81 -67q-9 0 -9 23q0 50 32 111q36 68 83 68z" />
<glyph unicode="&#xe7;" horiz-adv-x="348" d="M217 -4q10 1 19 1.5t17 2.5q56 9 98 51q5 5 7 22q2 22 -5 39q-3 9 -8 3q-10 -14 -24 -25t-31 -21q-28 -16 -49 -18q-81 -5 -120 32q-35 32 -35 79q0 20 4 40q12 72 56 104q32 21 63 17q13 -2 17.5 -9t6.5 -14.5t4.5 -13.5t11.5 -6q10 -3 18 2q31 16 27 60q-4 56 -101 61 q-65 3 -127 -47q-70 -58 -87 -163q-3 -17 -3 -34q0 -83 69 -126q53 -32 137 -37l-35 -72q-3 -6 -3 -7q0 -6 5 -6q2 0 12 1.5t14 1.5q44 0 44 -35q0 -46 -56 -46q-49 0 -96 34l-22 -35q55 -37 130 -37q47 0 82 20q40 24 40 67q0 29 -21 49.5t-59 20.5q-4 0 -12 -1t-12 -1z " />
<glyph unicode="&#xe8;" horiz-adv-x="386" d="M396 73q2 22 -5 39q-3 9 -8 3q-43 -58 -105 -64q-95 -9 -139 16q-12 6 -12 10q0 1 5 6q19 14 38.5 31.5t39.5 39.5q64 69 72 117q3 18 3 34q0 72 -58 97q-15 7 -41 7q-46 0 -89 -24q-52 -28 -81 -85q-40 -79 -40 -148q0 -79 54 -124q47 -38 162 -38q55 0 99 9 q56 10 98 52q5 5 7 22zM193 331q29 0 29 -34q0 -24 -22 -61q-35 -60 -102 -102q-20 -14 -20 18q0 45 32 112q14 30 38.5 48.5t44.5 18.5zM5 680q1 13 43 11q32 -2 47 -7q11 -5 14 -13q13 -40 26 -56q34 -38 52 -48q10 -4 10 -13q0 -7 -10 -14q-19 -11 -42 -2q-53 19 -96 63 q-49 47 -44 79z" />
<glyph unicode="&#xe9;" horiz-adv-x="386" d="M396 73q2 22 -5 39q-3 9 -8 3q-43 -58 -105 -64q-95 -9 -139 16q-12 6 -12 10q0 1 5 6q19 14 38.5 31.5t39.5 39.5q64 69 72 117q3 18 3 34q0 72 -58 97q-15 7 -41 7q-46 0 -89 -24q-52 -28 -81 -85q-40 -79 -40 -148q0 -79 54 -124q47 -38 162 -38q55 0 99 9 q56 10 98 52q5 5 7 22zM193 331q29 0 29 -34q0 -24 -22 -61q-35 -60 -102 -102q-20 -14 -20 18q0 45 32 112q14 30 38.5 48.5t44.5 18.5zM392 680q-1 13 -43 11q-32 -2 -47 -7q-11 -5 -14 -13q-13 -40 -26 -56q-34 -38 -52 -48q-10 -4 -10 -13q0 -7 10 -14q19 -11 42 -2 q52 19 96 63q49 47 44 79z" />
<glyph unicode="&#xea;" horiz-adv-x="386" d="M396 73q2 22 -5 39q-3 9 -8 3q-43 -58 -105 -64q-95 -9 -139 16q-12 6 -12 10q0 1 5 6q19 14 38.5 31.5t39.5 39.5q64 69 72 117q3 18 3 34q0 72 -58 97q-15 7 -41 7q-46 0 -89 -24q-52 -28 -81 -85q-40 -79 -40 -148q0 -79 54 -124q47 -38 162 -38q55 0 99 9 q56 10 98 52q5 5 7 22zM193 331q29 0 29 -34q0 -24 -22 -61q-35 -60 -102 -102q-20 -14 -20 18q0 45 32 112q14 30 38.5 48.5t44.5 18.5zM308 543q0 3 -7 10q-47 58 -57 114h-80q-60 -70 -120 -113q-12 -8 -12 -10q0 -8 21 -8q57 0 143 72q70 -73 103 -73q9 0 9 8z" />
<glyph unicode="&#xeb;" horiz-adv-x="386" d="M396 73q2 22 -5 39q-3 9 -8 3q-43 -58 -105 -64q-95 -9 -139 16q-12 6 -12 10q0 1 5 6q19 14 38.5 31.5t39.5 39.5q64 69 72 117q3 18 3 34q0 72 -58 97q-15 7 -41 7q-46 0 -89 -24q-52 -28 -81 -85q-40 -79 -40 -148q0 -79 54 -124q47 -38 162 -38q55 0 99 9 q56 10 98 52q5 5 7 22zM193 331q29 0 29 -34q0 -24 -22 -61q-35 -60 -102 -102q-20 -14 -20 18q0 45 32 112q14 30 38.5 48.5t44.5 18.5zM322 579q8 14 8 33q0 34 -32 48q-9 3 -19 3q-40 0 -53 -27q-14 -26 -14 -47q0 -31 32 -45q9 -4 21 -4q33 0 57 39zM182 579q8 14 8 33 q0 34 -32 48q-9 3 -19 3q-40 0 -53 -27q-14 -26 -14 -47q0 -31 32 -45q9 -4 21 -4q33 0 57 39z" />
<glyph unicode="&#xec;" horiz-adv-x="273" d="M283 73q2 22 -5 39q-3 9 -8 3q-10 -14 -24 -25.5t-31 -21.5q-30 -18 -49 -18q-52 0 -72 17q-7 6 -7 19q0 11 8 38l43 128l39 117q2 12 -3.5 23t-14.5 13q-33 9 -71 -2q-17 -5 -23 -30l-19 -64l-20 -64q-17 -57 -25.5 -91.5t-9.5 -45.5q0 -18 1.5 -31t7 -23.5t14.5 -20 t24 -20.5q25 -17 89 -17q14 0 26.5 1t24.5 3q56 9 98 51q5 5 7 22zM-34 680q1 13 42 11q32 -2 47 -7q11 -5 14 -13q13 -40 26 -56q34 -38 52 -48q10 -4 10 -13q0 -7 -10 -14q-19 -11 -42 -2q-53 19 -96 63q-48 47 -43 79z" />
<glyph unicode="&#xed;" horiz-adv-x="273" d="M283 73q2 22 -5 39q-3 9 -8 3q-10 -14 -24 -25.5t-31 -21.5q-30 -18 -49 -18q-52 0 -72 17q-7 6 -7 19q0 11 8 38l43 128l39 117q2 12 -3.5 23t-14.5 13q-33 9 -71 -2q-17 -5 -23 -30l-19 -64l-20 -64q-17 -57 -25.5 -91.5t-9.5 -45.5q0 -18 1.5 -31t7 -23.5t14.5 -20 t24 -20.5q25 -17 89 -17q14 0 26.5 1t24.5 3q56 9 98 51q5 5 7 22zM352 680q-1 13 -43 11q-32 -2 -47 -7q-11 -5 -14 -13q-13 -40 -26 -56q-34 -38 -52 -48q-10 -4 -10 -13q0 -7 10 -14q19 -11 42 -2q52 19 96 63q49 47 44 79z" />
<glyph unicode="&#xee;" horiz-adv-x="273" d="M283 73q2 22 -5 39q-3 9 -8 3q-10 -14 -24 -25.5t-31 -21.5q-30 -18 -49 -18q-52 0 -72 17q-7 6 -7 19q0 11 8 38l43 128l39 117q2 12 -3.5 23t-14.5 13q-33 9 -71 -2q-17 -5 -23 -30l-19 -64l-20 -64q-17 -57 -25.5 -91.5t-9.5 -45.5q0 -18 1.5 -31t7 -23.5t14.5 -20 t24 -20.5q25 -17 89 -17q14 0 26.5 1t24.5 3q56 9 98 51q5 5 7 22zM278 543q0 3 -7 10q-47 58 -57 114h-80q-60 -70 -120 -113q-12 -8 -12 -10q0 -8 21 -8q57 0 143 72q70 -73 103 -73q9 0 9 8z" />
<glyph unicode="&#xef;" horiz-adv-x="273" d="M283 73q2 22 -5 39q-3 9 -8 3q-10 -14 -24 -25.5t-31 -21.5q-30 -18 -49 -18q-52 0 -72 17q-7 6 -7 19q0 11 8 38l43 128l39 117q2 12 -3.5 23t-14.5 13q-33 9 -71 -2q-17 -5 -23 -30l-19 -64l-20 -64q-17 -57 -25.5 -91.5t-9.5 -45.5q0 -18 1.5 -31t7 -23.5t14.5 -20 t24 -20.5q25 -17 89 -17q14 0 26.5 1t24.5 3q56 9 98 51q5 5 7 22zM302 579q8 14 8 33q0 34 -32 48q-9 3 -19 3q-40 0 -53 -27q-14 -26 -14 -47q0 -31 32 -45q9 -4 21 -4q33 0 57 39zM162 579q8 14 8 33q0 34 -32 48q-9 3 -19 3q-40 0 -53 -27q-14 -26 -14 -47q0 -31 32 -45 q9 -4 21 -4q33 0 57 39z" />
<glyph unicode="&#xf0;" horiz-adv-x="370" d="M131 78q-54 0 -54 61q0 64 39 112q34 43 72 43q44 0 44 -44q0 -55 -22 -105q-28 -67 -79 -67zM355 615q-10 63 -23 95q-5 12 -31 12q-21 0 -37.5 -11t-16.5 -25q0 -1 1.5 -8.5t3.5 -21.5q4 -17 6.5 -33t4.5 -30l-61 -15q-56 -14 -64 -40l-14 -44l147 34q1 -5 1 -12v-16 q0 -98 -14 -128q-18 12 -45 12q-98 0 -162 -69q-69 -74 -69 -195q0 -60 32 -92.5t87 -32.5q116 0 176 97q17 -20 35 -20q24 0 44 12q14 9 14 47q0 43 -6 43l-4 -3l-11 -8q-14 -10 -25 -10q-13 0 -13 18q0 20 10 50q44 137 44 281q0 8 -0.5 19.5t-1.5 27.5l56 13q65 15 72 43 l11 45z" />
<glyph unicode="&#xf1;" horiz-adv-x="491" d="M501 73q2 22 -5 39q-3 9 -8 3q-10 -14 -24 -25.5t-31 -21.5q-30 -18 -49 -18q-42 0 -57 9t-15 24q0 6 3 17q1 2 9 24l24 65q30 79 39 114q7 25 7 45q0 39 -39 56q-14 6 -30 6q-75 0 -179 -131q-4 -7 -10 -7t-1 12q25 76 33 105q4 18 -3 25t-34 8q-26 1 -36 -3 q-20 -7 -28 -27q-3 -8 -15 -54l-34 -134q-44 -177 -45 -190q-1 -16 14 -21q29 -9 59 9q12 8 16 24q5 16 18 44t35 70q52 99 93.5 140t61.5 35q9 -3 9 -13q0 -14 -12 -36q-8 -17 -18 -40.5t-21 -54.5q-24 -71 -24 -98q0 -47 54 -68q56 -20 138 -5q56 9 98 51q5 5 7 22z M375 570q41 41 41 50q0 14 -15 14q-7 0 -19 -12q-24 -24 -40 -24q-13 0 -47 19q-52 28 -76 28q-26 0 -58 -38q-41 -50 -41 -55q0 -14 14 -14q8 0 35 27q14 14 24 14t48 -18q57 -26 74 -26q25 0 60 35z" />
<glyph unicode="&#xf2;" horiz-adv-x="412" d="M322 360q-20 11 -38 11q-55 0 -55 -64q0 -34 22 -50q11 -8 11 -21q0 -14 -16 -59q-18 -56 -36 -81q-33 -47 -74 -47q-14 0 -27 7q-18 10 -18 40q0 41 33 115q22 49 66 102q33 42 48 50q18 10 8 23q-7 10 -32 10q-51 -2 -109 -46q-66 -50 -92 -127q-21 -65 -21 -110 q0 -82 70 -112q31 -12 65 -12q118 0 183 131q43 87 43 159q0 63 -31 81zM85 680q1 13 43 11q32 -2 47 -7q11 -5 14 -13q13 -40 26 -56q34 -38 52 -48q10 -4 10 -13q0 -7 -10 -14q-19 -11 -42 -2q-53 19 -96 63q-49 47 -44 79z" />
<glyph unicode="&#xf3;" horiz-adv-x="412" d="M322 360q-20 11 -38 11q-55 0 -55 -64q0 -34 22 -50q11 -8 11 -21q0 -14 -16 -59q-18 -56 -36 -81q-33 -47 -74 -47q-14 0 -27 7q-18 10 -18 40q0 41 33 115q22 49 66 102q33 42 48 50q18 10 8 23q-7 10 -32 10q-51 -2 -109 -46q-66 -50 -92 -127q-21 -65 -21 -110 q0 -82 70 -112q31 -12 65 -12q118 0 183 131q43 87 43 159q0 63 -31 81zM472 680q-1 13 -43 11q-32 -2 -47 -7q-11 -5 -14 -13q-13 -40 -26 -56q-34 -38 -52 -48q-10 -4 -10 -13q0 -7 10 -14q19 -11 42 -2q52 19 96 63q49 47 44 79z" />
<glyph unicode="&#xf4;" horiz-adv-x="412" d="M322 360q-20 11 -38 11q-55 0 -55 -64q0 -34 22 -50q11 -8 11 -21q0 -14 -16 -59q-18 -56 -36 -81q-33 -47 -74 -47q-14 0 -27 7q-18 10 -18 40q0 41 33 115q22 49 66 102q33 42 48 50q18 10 8 23q-7 10 -32 10q-51 -2 -109 -46q-66 -50 -92 -127q-21 -65 -21 -110 q0 -82 70 -112q31 -12 65 -12q118 0 183 131q43 87 43 159q0 63 -31 81zM408 543q0 3 -7 10q-47 58 -57 114h-80q-60 -70 -120 -113q-12 -8 -12 -10q0 -8 21 -8q57 0 143 72q70 -73 103 -73q9 0 9 8z" />
<glyph unicode="&#xf5;" horiz-adv-x="412" d="M322 360q-20 11 -38 11q-55 0 -55 -64q0 -34 22 -50q11 -8 11 -21q0 -14 -16 -59q-18 -56 -36 -81q-33 -47 -74 -47q-14 0 -27 7q-18 10 -18 40q0 41 33 115q22 49 66 102q33 42 48 50q18 10 8 23q-7 10 -32 10q-51 -2 -109 -46q-66 -50 -92 -127q-21 -65 -21 -110 q0 -82 70 -112q31 -12 65 -12q118 0 183 131q43 87 43 159q0 63 -31 81zM355 570q41 41 41 51q0 14 -15 14q-7 0 -19 -12q-24 -24 -40 -24q-13 0 -47 18q-53 29 -76 29q-27 0 -58 -39q-41 -49 -41 -54q0 -14 14 -14q7 0 35 26q14 14 24 14q9 0 48 -17q55 -27 74 -27 q25 0 60 35z" />
<glyph unicode="&#xf6;" horiz-adv-x="412" d="M322 360q-20 11 -38 11q-55 0 -55 -64q0 -34 22 -50q11 -8 11 -21q0 -14 -16 -59q-18 -56 -36 -81q-33 -47 -74 -47q-14 0 -27 7q-18 10 -18 40q0 41 33 115q22 49 66 102q33 42 48 50q18 10 8 23q-7 10 -32 10q-51 -2 -109 -46q-66 -50 -92 -127q-21 -65 -21 -110 q0 -82 70 -112q31 -12 65 -12q118 0 183 131q43 87 43 159q0 63 -31 81zM382 579q8 14 8 33q0 34 -32 48q-9 3 -19 3q-40 0 -53 -27q-14 -26 -14 -47q0 -31 32 -45q9 -4 21 -4q33 0 57 39zM242 579q8 14 8 33q0 34 -32 48q-9 3 -19 3q-40 0 -53 -27q-14 -26 -14 -47 q0 -31 32 -45q9 -4 21 -4q33 0 57 39z" />
<glyph unicode="&#xf7;" d="M478 149v58h-356v-58h356zM300 272q21 0 36 15.5t15 36.5q0 20 -15 35.5t-36 15.5q-20 0 -35 -15.5t-15 -35.5q0 -21 15 -36.5t35 -15.5zM300 -18q21 0 36 15t15 35q0 21 -15 36.5t-36 15.5q-20 0 -35 -15.5t-15 -36.5q0 -20 15 -35t35 -15z" />
<glyph unicode="&#xf8;" horiz-adv-x="370" d="M253 473l-43 -89q-92 -2 -156 -66q-72 -74 -72 -198q0 -76 48 -106l-57 -118h70l50 100q1 -1 8 -1q54 0 91 18t74 61q14 -8 29 -8q21 0 60 19q15 7 15 46q0 43 -6 43q1 0 -18 -13t-34 -13q-12 0 -16 2q1 2 2.5 7t4.5 13q5 13 5 19q0 10 -9 37q4 4 7 7.5t7 7.5q9 13 9 36 q0 58 -45 87l54 109h-78zM131 78q-54 0 -54 61q0 64 39 112q34 43 72 43q44 0 44 -39q0 -5 -26 -33q-26 -26 -26 -63q0 -12 13 -44q-3 -7 -10 -13.5t-16 -12t-18.5 -8.5t-17.5 -3z" />
<glyph unicode="&#xf9;" horiz-adv-x="494" d="M504 73q2 22 -5 39q-3 9 -8 3q-10 -14 -24 -25.5t-31 -21.5q-30 -18 -49 -18q-50 0 -69 19q-12 12 -3 56q5 22 39 122q32 97 39 110t7 23q0 18 -47 23q-51 5 -62 -34q-7 -22 -19 -53.5t-31 -74.5q-50 -112 -82 -144q-27 -27 -42 -27q-27 0 -27 22q0 6 2 14l3 20 q4 23 42 121l27 69q10 27 16 41q5 12 5 18q0 20 -40 32q-22 7 -39 7q-25 0 -32 -22q-82 -248 -86 -295q-1 -8 -1.5 -14.5t-0.5 -11.5q0 -54 45 -70q19 -6 39 -6q80 0 158 112q2 4 4 6l3 3q2 2 2 -1q0 -4 -1 -8q-6 -30 -6 -46q0 -31 20 -45q31 -21 97 -21q14 0 26.5 1.5 t25.5 3.5q56 9 98 51q5 5 7 22zM85 680q1 13 43 11q32 -2 47 -7q11 -5 14 -13q13 -40 26 -56q34 -38 52 -48q10 -4 10 -13q0 -7 -10 -14q-19 -11 -42 -2q-53 19 -96 63q-49 47 -44 79z" />
<glyph unicode="&#xfa;" horiz-adv-x="494" d="M504 73q2 22 -5 39q-3 9 -8 3q-10 -14 -24 -25.5t-31 -21.5q-30 -18 -49 -18q-50 0 -69 19q-12 12 -3 56q5 22 39 122q32 97 39 110t7 23q0 18 -47 23q-51 5 -62 -34q-7 -22 -19 -53.5t-31 -74.5q-50 -112 -82 -144q-27 -27 -42 -27q-27 0 -27 22q0 6 2 14l3 20 q4 23 42 121l27 69q10 27 16 41q5 12 5 18q0 20 -40 32q-22 7 -39 7q-25 0 -32 -22q-82 -248 -86 -295q-1 -8 -1.5 -14.5t-0.5 -11.5q0 -54 45 -70q19 -6 39 -6q80 0 158 112q2 4 4 6l3 3q2 2 2 -1q0 -4 -1 -8q-6 -30 -6 -46q0 -31 20 -45q31 -21 97 -21q14 0 26.5 1.5 t25.5 3.5q56 9 98 51q5 5 7 22zM432 680q-1 13 -43 11q-32 -2 -47 -7q-11 -5 -14 -13q-13 -40 -26 -56q-34 -38 -52 -48q-10 -4 -10 -13q0 -7 10 -14q19 -11 42 -2q52 19 96 63q49 47 44 79z" />
<glyph unicode="&#xfb;" horiz-adv-x="494" d="M504 73q2 22 -5 39q-3 9 -8 3q-10 -14 -24 -25.5t-31 -21.5q-30 -18 -49 -18q-50 0 -69 19q-12 12 -3 56q5 22 39 122q32 97 39 110t7 23q0 18 -47 23q-51 5 -62 -34q-7 -22 -19 -53.5t-31 -74.5q-50 -112 -82 -144q-27 -27 -42 -27q-27 0 -27 22q0 6 2 14l3 20 q4 23 42 121l27 69q10 27 16 41q5 12 5 18q0 20 -40 32q-22 7 -39 7q-25 0 -32 -22q-82 -248 -86 -295q-1 -8 -1.5 -14.5t-0.5 -11.5q0 -54 45 -70q19 -6 39 -6q80 0 158 112q2 4 4 6l3 3q2 2 2 -1q0 -4 -1 -8q-6 -30 -6 -46q0 -31 20 -45q31 -21 97 -21q14 0 26.5 1.5 t25.5 3.5q56 9 98 51q5 5 7 22zM408 543q0 3 -7 10q-47 58 -57 114h-80q-60 -70 -120 -113q-12 -8 -12 -10q0 -8 21 -8q57 0 143 72q70 -73 103 -73q9 0 9 8z" />
<glyph unicode="&#xfc;" horiz-adv-x="494" d="M504 73q2 22 -5 39q-3 9 -8 3q-10 -14 -24 -25.5t-31 -21.5q-30 -18 -49 -18q-50 0 -69 19q-12 12 -3 56q5 22 39 122q32 97 39 110t7 23q0 18 -47 23q-51 5 -62 -34q-7 -22 -19 -53.5t-31 -74.5q-50 -112 -82 -144q-27 -27 -42 -27q-27 0 -27 22q0 6 2 14l3 20 q4 23 42 121l27 69q10 27 16 41q5 12 5 18q0 20 -40 32q-22 7 -39 7q-25 0 -32 -22q-82 -248 -86 -295q-1 -8 -1.5 -14.5t-0.5 -11.5q0 -54 45 -70q19 -6 39 -6q80 0 158 112q2 4 4 6l3 3q2 2 2 -1q0 -4 -1 -8q-6 -30 -6 -46q0 -31 20 -45q31 -21 97 -21q14 0 26.5 1.5 t25.5 3.5q56 9 98 51q5 5 7 22zM422 579q8 14 8 33q0 34 -32 48q-9 3 -19 3q-40 0 -53 -27q-14 -26 -14 -47q0 -31 32 -45q9 -4 21 -4q33 0 57 39zM282 579q8 14 8 33q0 34 -32 48q-9 3 -19 3q-40 0 -53 -27q-14 -26 -14 -47q0 -31 32 -45q9 -4 21 -4q33 0 57 39z" />
<glyph unicode="&#xfd;" horiz-adv-x="485" d="M495 73q2 22 -5 39q-3 9 -8 3q-18 -22 -47 -42q-33 -21 -57 -23q-20 -1 -33 -1q-12 0 -16 -1q-27 -3 -32 -4t-6 -1q-2 2 -2 4q2 3 3 10q107 312 107 319q0 16 -17 24q-9 4 -26 5q-18 2 -23 0q-17 -6 -21 -15l-35 -78l-34 -77q-55 -110 -89 -136q-28 -21 -54 -13 q-20 7 -18 48q1 17 42 124q39 100 48 114q11 17 -2 27q-23 17 -46 17q-4 0 -8.5 -0.5t-9.5 -1.5q-20 -3 -29 -18q-11 -19 -24.5 -48.5t-27.5 -70.5q-37 -107 -37 -179q0 -8 0.5 -16t1.5 -15q2 -13 9 -25t16.5 -21t20.5 -15t21 -6q46 -5 102 41q41 35 59 65q4 7 9 7q8 0 3 -8 l-48 -129q-4 -10 -8 -12q-17 -10 -46 -36q-34 -32 -48 -59q-15 -30 -15 -51q0 -40 43 -40q28 0 69 35q22 19 53 79q32 64 34 67q19 21 26 27q9 6 37 8q42 1 63 6q56 9 98 51q5 5 7 22zM432 680q-1 13 -43 11q-32 -2 -47 -7q-11 -5 -14 -13q-13 -40 -26 -56q-34 -38 -52 -48 q-10 -4 -10 -13q0 -7 10 -14q19 -11 42 -2q52 19 96 63q49 47 44 79z" />
<glyph unicode="&#xfe;" horiz-adv-x="537" d="M132 293l-74 -64l-65 -56q-14 -14 -14 -26v-51q0 -14 5 -14q2 0 34 27q31 27 55 52l33 34h2q-151 -350 -151 -439q0 -49 41 -49q38 0 50 58q16 73 33 135t37 113q39 102 115 184q69 75 110 75q22 0 22 -16q0 -45 -53 -119q-52 -73 -79 -73q-8 0 -22.5 3.5t-20.5 3.5 q-26 0 -26 -26q0 -19 18 -34.5t36 -15.5q33 0 70 17q18 -8 45 -8q77 0 167 63q42 28 42 69q0 36 -13 36q-3 0 -22 -18l-35 -30q-16 -12 -28 -19q-32 -18 -75 -27v2q90 94 90 180q0 43 -23.5 69.5t-62.5 26.5q-88 0 -163 -96h-2q16 63 27 84q114 223 114 328q0 50 -34 50 q-29 0 -48 -51q-16 -39 -43 -115l-66 -188z" />
<glyph unicode="&#xff;" horiz-adv-x="485" d="M495 73q2 22 -5 39q-3 9 -8 3q-18 -22 -47 -42q-33 -21 -57 -23q-20 -1 -33 -1q-12 0 -16 -1q-27 -3 -32 -4t-6 -1q-2 2 -2 4q2 3 3 10q107 312 107 319q0 16 -17 24q-9 4 -26 5q-18 2 -23 0q-17 -6 -21 -15l-35 -78l-34 -77q-55 -110 -89 -136q-28 -21 -54 -13 q-20 7 -18 48q1 17 42 124q39 100 48 114q11 17 -2 27q-23 17 -46 17q-4 0 -8.5 -0.5t-9.5 -1.5q-20 -3 -29 -18q-11 -19 -24.5 -48.5t-27.5 -70.5q-37 -107 -37 -179q0 -8 0.5 -16t1.5 -15q2 -13 9 -25t16.5 -21t20.5 -15t21 -6q46 -5 102 41q41 35 59 65q4 7 9 7q8 0 3 -8 l-48 -129q-4 -10 -8 -12q-17 -10 -46 -36q-34 -32 -48 -59q-15 -30 -15 -51q0 -40 43 -40q28 0 69 35q22 19 53 79q32 64 34 67q19 21 26 27q9 6 37 8q42 1 63 6q56 9 98 51q5 5 7 22zM422 579q8 14 8 33q0 34 -32 48q-9 3 -19 3q-40 0 -53 -27q-14 -26 -14 -47 q0 -31 32 -45q9 -4 21 -4q33 0 57 39zM282 579q8 14 8 33q0 34 -32 48q-9 3 -19 3q-40 0 -53 -27q-14 -26 -14 -47q0 -31 32 -45q9 -4 21 -4q33 0 57 39z" />
<glyph unicode="&#x152;" horiz-adv-x="718" d="M412 496q-2 -20 -40 -20q-20 0 -36.5 6.5t-28 17.5t-18 25t-6.5 29q0 28 26 51q13 12 34 12q15 0 28.5 -7.5t23 -19.5t15 -27t5.5 -30q0 -3 -3 -37zM385 371q-14 -54 -59 -138q-84 -158 -157 -158q-10 0 -20 3q-64 21 -64 117q0 79 40 187q37 102 83 156q7 10 13 10 q5 0 4 -19q-8 -60 41 -104q36 -33 78 -33q7 0 16 2l22 3q4 1 6 -6q-1 -5 -1.5 -10t-1.5 -10zM793 609q-2 33 -39 51q-20 10 -58 10q-115 0 -208 -100q-26 81 -68 98q-41 19 -64 19q-27 0 -61 -15q-8 -3 -19 -3q-81 -2 -156 -87q-63 -73 -107 -189q-32 -90 -32 -184 q0 -170 102 -210q30 -13 66 -13q29 0 59 9q-20 -52 -20 -91q0 -91 96 -119q18 -5 37 -5q74 0 154 54q57 38 107 93q46 49 55 73q2 8 2 11q0 14 -20 31q-15 12 -25 12q-11 0 -20 -14q-24 -38 -88 -98q-86 -80 -130 -80t-44 54q0 56 55 144q63 103 120 153q13 12 26 10 q33 -7 55 -1q73 19 73 63t-57 44q-20 0 -40 -9l-40 -18q-10 -5 -15.5 0.5t-5.5 18.5q0 53 43 126q37 63 82 105q52 49 93 48q17 0 29 -4.5t20 -9.5t12.5 -9t5.5 -4q9 0 17.5 12t7.5 24z" />
<glyph unicode="&#x153;" horiz-adv-x="642" d="M450 331q29 0 29 -34q0 -24 -22 -61q-35 -60 -102 -102q-20 -14 -20 18q0 45 32 112q14 30 38.5 48.5t44.5 18.5zM264 51q5 -6 10.5 -12t12.5 -11q47 -38 162 -38q55 0 99 9q56 10 98 52q5 5 7 22q2 22 -5 39q-3 9 -8 3q-43 -58 -105 -64q-95 -9 -139 16q-12 6 -12 10 q0 1 5 6q19 14 38.5 31.5t39.5 39.5q64 69 72 117q3 18 3 34q0 72 -58 97q-15 7 -41 7q-69 0 -123 -48q-17 10 -36 10q-31 0 -44 -22l-1 -1q-11 -20 -11 -45q0 -32 23 -46q11 -8 11 -21q0 -14 -16 -59q-18 -56 -36 -81q-33 -47 -74 -47q-14 0 -27 7q-18 10 -18 40 q0 41 33 115q22 49 66 102q33 42 48 50q18 10 8 23q-7 10 -32 10q-51 -2 -109 -46q-66 -50 -92 -127q-21 -65 -21 -110q0 -82 70 -112q31 -12 65 -12q78 0 137 62z" />
<glyph unicode="&#x178;" horiz-adv-x="821" d="M831 73q2 22 -5 39q-3 9 -8 3q-10 -14 -24 -25.5t-31 -21.5q-30 -18 -49 -18q-13 0 -25.5 -0.5t-24.5 -1.5q-29 -3 -36 -3q-9 0 -10 6q-1 3 4 19q10 26 32 97l58 187q66 216 75 249q3 10 3 19q0 22 -41 30q-10 2 -18 3t-13 1q-24 0 -31 -21q-36 -112 -146 -293 q-115 -187 -186 -238q-44 -33 -75 -25q-12 3 -12 19q0 12 8 31q100 235 117 354q1 8 1.5 17t0.5 17q0 130 -131 138q-152 8 -225 -151q-19 -39 -19 -82q0 -40 18 -73q15 -28 35 -39q12 -6 23 -6q30 0 30 21q0 8 -8 14q-12 10 -12 38q0 34 17 79q47 122 118 122q5 0 10 -0.5 t10 -1.5q40 -7 40 -61q0 -17 -4 -29q-2 -8 -69 -187q-65 -173 -72 -208q-1 -6 -1.5 -12t-0.5 -11q0 -36 22.5 -55t58.5 -19q60 0 122 39q55 36 124 116q28 33 51 64.5t41 62.5l6 8q3 1 3 -1t-0.5 -5t-1.5 -8q-9 -33 -45 -126l-33 -80q-14 -34 -25 -58q-11 -22 -24 -26 q-31 -11 -91 -62q-69 -60 -69 -99q0 -18 13 -28q24 -21 56 -21q57 0 127 68q60 60 78 114q6 16 24 24q17 9 42.5 12t54 6t56 9.5t49.5 21.5q8 5 15.5 11.5t15.5 14.5q5 5 7 22zM679 803q8 14 8 33q0 34 -32 48q-9 3 -19 3q-40 0 -53 -27q-14 -26 -14 -47q0 -31 32 -45 q9 -4 21 -4q33 0 57 39zM539 803q8 14 8 33q0 34 -32 48q-9 3 -19 3q-40 0 -53 -27q-14 -26 -14 -47q0 -31 32 -45q9 -4 21 -4q33 0 57 39z" />
<glyph unicode="&#x2c6;" horiz-adv-x="507" d="M395 543q0 3 -7 10q-47 58 -57 114h-80q-60 -70 -120 -113q-12 -8 -12 -10q0 -8 21 -8q57 0 143 72q70 -73 103 -73q9 0 9 8z" />
<glyph unicode="&#x2dc;" horiz-adv-x="507" d="M395 570q41 41 41 51q0 14 -15 14q-7 0 -19 -12q-24 -24 -40 -24q-13 0 -47 18q-53 29 -76 29q-27 0 -58 -39q-41 -49 -41 -54q0 -14 14 -14q7 0 35 26q14 14 24 14q9 0 48 -17q55 -27 74 -27q25 0 60 35z" />
<glyph unicode="&#x2000;" horiz-adv-x="459" />
<glyph unicode="&#x2001;" horiz-adv-x="918" />
<glyph unicode="&#x2002;" horiz-adv-x="459" />
<glyph unicode="&#x2003;" horiz-adv-x="918" />
<glyph unicode="&#x2004;" horiz-adv-x="306" />
<glyph unicode="&#x2005;" horiz-adv-x="229" />
<glyph unicode="&#x2006;" horiz-adv-x="153" />
<glyph unicode="&#x2007;" horiz-adv-x="153" />
<glyph unicode="&#x2008;" horiz-adv-x="114" />
<glyph unicode="&#x2009;" horiz-adv-x="183" />
<glyph unicode="&#x200a;" horiz-adv-x="51" />
<glyph unicode="&#x2010;" horiz-adv-x="386" d="M276 194q20 0 33 15t13 36q0 18 -20 20q-69 1 -127.5 2t-109.5 0q-26 3 -41 -31q-11 -25 -11 -32q0 -11 14 -9q36 3 134 0q17 -1 45 -1h70z" />
<glyph unicode="&#x2011;" horiz-adv-x="386" d="M276 194q20 0 33 15t13 36q0 18 -20 20q-69 1 -127.5 2t-109.5 0q-26 3 -41 -31q-11 -25 -11 -32q0 -11 14 -9q36 3 134 0q17 -1 45 -1h70z" />
<glyph unicode="&#x2013;" horiz-adv-x="500" d="M491 148l18 60h-500l-17 -60h499z" />
<glyph unicode="&#x2014;" horiz-adv-x="1000" d="M991 148l18 60h-1000l-17 -60h999z" />
<glyph unicode="&#x2018;" horiz-adv-x="264" d="M286 664q8 8 8 17q0 11 -10.5 19.5t-21.5 8.5q-9 0 -22 -8q-48 -32 -86 -99q-34 -59 -34 -98q0 -5 0.5 -9.5t1.5 -9.5q4 -19 44 -12q15 2 26.5 6.5t19.5 9.5q11 8 12 19q7 59 18 82q28 58 44 74z" />
<glyph unicode="&#x2019;" horiz-adv-x="294" d="M272 697q-4 19 -44 12q-15 -2 -26.5 -6.5t-19.5 -9.5q-11 -8 -12 -19q-7 -59 -18 -82q-29 -59 -44 -74q-8 -8 -8 -17q0 -11 10.5 -19.5t21.5 -8.5q9 0 22 8q48 32 86 99q34 59 34 98q0 5 -0.5 9.5t-1.5 9.5z" />
<glyph unicode="&#x201a;" horiz-adv-x="294" d="M272 100q-4 19 -44 12q-15 -2 -26.5 -6.5t-19.5 -9.5q-11 -8 -12 -19q-8 -60 -18 -81q-29 -59 -44 -74q-8 -8 -8 -17q0 -11 10.5 -19.5t21.5 -8.5q9 0 22 8q48 32 86 99q34 58 34 97q0 5 -0.5 9.5t-1.5 9.5z" />
<glyph unicode="&#x201c;" horiz-adv-x="480" d="M472 664q8 8 8 17q0 11 -10.5 19.5t-21.5 8.5q-9 0 -22 -8q-48 -32 -86 -99q-34 -59 -34 -98q0 -5 0.5 -9.5t1.5 -9.5q4 -19 44 -12q15 2 26.5 6.5t19.5 9.5q11 8 12 19q7 59 18 82q28 58 44 74zM286 664q8 8 8 17q0 11 -10.5 19.5t-21.5 8.5q-9 0 -22 -8 q-48 -32 -86 -99q-34 -59 -34 -98q0 -5 0.5 -9.5t1.5 -9.5q4 -19 44 -12q15 2 26.5 6.5t19.5 9.5q11 8 12 19q7 59 18 82q28 58 44 74z" />
<glyph unicode="&#x201d;" horiz-adv-x="480" d="M458 697q-4 19 -44 12q-15 -2 -26.5 -6.5t-19.5 -9.5q-11 -8 -12 -19q-7 -59 -18 -82q-29 -59 -44 -74q-8 -8 -8 -17q0 -11 10.5 -19.5t21.5 -8.5q9 0 22 8q48 32 86 99q34 59 34 98q0 5 -0.5 9.5t-1.5 9.5zM272 697q-4 19 -44 12q-15 -2 -26.5 -6.5t-19.5 -9.5 q-11 -8 -12 -19q-7 -59 -18 -82q-29 -59 -44 -74q-8 -8 -8 -17q0 -11 10.5 -19.5t21.5 -8.5q9 0 22 8q48 32 86 99q34 59 34 98q0 5 -0.5 9.5t-1.5 9.5z" />
<glyph unicode="&#x201e;" horiz-adv-x="480" d="M458 100q-4 19 -44 12q-15 -2 -26.5 -6.5t-19.5 -9.5q-11 -8 -12 -19q-8 -60 -18 -81q-29 -59 -44 -74q-8 -8 -8 -17q0 -11 10.5 -19.5t21.5 -8.5q9 0 22 8q48 32 86 99q34 58 34 97q0 5 -0.5 9.5t-1.5 9.5zM272 100q-4 19 -44 12q-15 -2 -26.5 -6.5t-19.5 -9.5 q-11 -8 -12 -19q-8 -60 -18 -81q-29 -59 -44 -74q-8 -8 -8 -17q0 -11 10.5 -19.5t21.5 -8.5q9 0 22 8q48 32 86 99q34 58 34 97q0 5 -0.5 9.5t-1.5 9.5z" />
<glyph unicode="&#x2022;" horiz-adv-x="500" d="M423 348q0 73 -51 123q-50 51 -122 51q-73 0 -124 -51q-50 -50 -50 -123q0 -72 51 -123q52 -50 123 -50q72 0 122 50q51 51 51 123z" />
<glyph unicode="&#x2026;" horiz-adv-x="1278" d="M1081 22q12 15 12 34q0 25 -16.5 42t-40.5 17q-30 0 -54 -27q-20 -23 -20 -52q0 -47 47 -47q46 0 72 33zM655 22q12 15 12 34q0 25 -16.5 42t-40.5 17q-30 0 -54 -27q-20 -23 -20 -52q0 -47 47 -47q46 0 72 33zM229 22q12 15 12 34q0 25 -16.5 42t-40.5 17q-30 0 -54 -27 q-20 -23 -20 -52q0 -47 47 -47q46 0 72 33z" />
<glyph unicode="&#x202f;" horiz-adv-x="183" />
<glyph unicode="&#x2039;" horiz-adv-x="315" d="M185 189q15 19 35 39l42 40q-26 -2 -44 -3t-28 -1h-22q-10 0 -21 1q-36 -60 -89 -119q49 -73 64 -119q8 1 17.5 1.5t20.5 0.5q-3 0 65 -3l-45 72l-33 50q14 12 38 41z" />
<glyph unicode="&#x203a;" horiz-adv-x="315" d="M126 27q27 52 117 117q-35 43 -59 122q-17 -2 -29.5 -3t-22.5 -1q-7 0 -24 2t-45 6l27 -28l12 -12q9 -11 24 -36q14 -24 26 -36q-32 -22 -69 -62q-30 -35 -75 -71q73 6 70 6q7 0 19 -1t29 -3z" />
<glyph unicode="&#x205f;" horiz-adv-x="229" />
<glyph unicode="&#x2122;" horiz-adv-x="990" d="M390 698h-332v-64h125v-348h82v348h125v64zM591 698h-117v-412h76v324h2l123 -324h56l123 324h2v-324h76v412h-116l-112 -292z" />
</font>
</defs>
</svg>
